<?xml version="1.0" encoding="utf-8"?>
<Project name="MayaMats" themeId="0" version="65540" templateID="SimpleProjectTemplate">
  <MediaItems>
    <MediaItem id="163" filePath="C:\Users\Christopher\Documents\maya\projects\Maya_mats\images\MayaMats_0405.jpg" arWidth="960" arHeight="540" duration="0" songTitle="" songArtist="" songAlbum="" songCopyrightUrl="" songArtistUrl="" songAudioFileUrl="" stabilizationMode="0" mediaItemType="2" />
    <MediaItem id="164" filePath="C:\Users\Christopher\Documents\maya\projects\Maya_mats\images\MayaMats_0407.jpg" arWidth="960" arHeight="540" duration="0" songTitle="" songArtist="" songAlbum="" songCopyrightUrl="" songArtistUrl="" songAudioFileUrl="" stabilizationMode="0" mediaItemType="2" />
    <MediaItem id="1" filePath="C:\Users\Christopher\Documents\maya\projects\Maya_mats\images\MayaMats_0081.jpg" arWidth="960" arHeight="540" duration="0" songTitle="" songArtist="" songAlbum="" songCopyrightUrl="" songArtistUrl="" songAudioFileUrl="" stabilizationMode="0" mediaItemType="2" />
    <MediaItem id="165" filePath="C:\Users\Christopher\Documents\maya\projects\Maya_mats\images\MayaMats_0409.jpg" arWidth="960" arHeight="540" duration="0" songTitle="" songArtist="" songAlbum="" songCopyrightUrl="" songArtistUrl="" songAudioFileUrl="" stabilizationMode="0" mediaItemType="2" />
    <MediaItem id="2" filePath="C:\Users\Christopher\Documents\maya\projects\Maya_mats\images\MayaMats_0083.jpg" arWidth="960" arHeight="540" duration="0" songTitle="" songArtist="" songAlbum="" songCopyrightUrl="" songArtistUrl="" songAudioFileUrl="" stabilizationMode="0" mediaItemType="2" />
    <MediaItem id="166" filePath="C:\Users\Christopher\Documents\maya\projects\Maya_mats\images\MayaMats_0411.jpg" arWidth="960" arHeight="540" duration="0" songTitle="" songArtist="" songAlbum="" songCopyrightUrl="" songArtistUrl="" songAudioFileUrl="" stabilizationMode="0" mediaItemType="2" />
    <MediaItem id="3" filePath="C:\Users\Christopher\Documents\maya\projects\Maya_mats\images\MayaMats_0085.jpg" arWidth="960" arHeight="540" duration="0" songTitle="" songArtist="" songAlbum="" songCopyrightUrl="" songArtistUrl="" songAudioFileUrl="" stabilizationMode="0" mediaItemType="2" />
    <MediaItem id="167" filePath="C:\Users\Christopher\Documents\maya\projects\Maya_mats\images\MayaMats_0413.jpg" arWidth="960" arHeight="540" duration="0" songTitle="" songArtist="" songAlbum="" songCopyrightUrl="" songArtistUrl="" songAudioFileUrl="" stabilizationMode="0" mediaItemType="2" />
    <MediaItem id="4" filePath="C:\Users\Christopher\Documents\maya\projects\Maya_mats\images\MayaMats_0087.jpg" arWidth="960" arHeight="540" duration="0" songTitle="" songArtist="" songAlbum="" songCopyrightUrl="" songArtistUrl="" songAudioFileUrl="" stabilizationMode="0" mediaItemType="2" />
    <MediaItem id="168" filePath="C:\Users\Christopher\Documents\maya\projects\Maya_mats\images\MayaMats_0415.jpg" arWidth="960" arHeight="540" duration="0" songTitle="" songArtist="" songAlbum="" songCopyrightUrl="" songArtistUrl="" songAudioFileUrl="" stabilizationMode="0" mediaItemType="2" />
    <MediaItem id="5" filePath="C:\Users\Christopher\Documents\maya\projects\Maya_mats\images\MayaMats_0089.jpg" arWidth="960" arHeight="540" duration="0" songTitle="" songArtist="" songAlbum="" songCopyrightUrl="" songArtistUrl="" songAudioFileUrl="" stabilizationMode="0" mediaItemType="2" />
    <MediaItem id="169" filePath="C:\Users\Christopher\Documents\maya\projects\Maya_mats\images\MayaMats_0417.jpg" arWidth="960" arHeight="540" duration="0" songTitle="" songArtist="" songAlbum="" songCopyrightUrl="" songArtistUrl="" songAudioFileUrl="" stabilizationMode="0" mediaItemType="2" />
    <MediaItem id="6" filePath="C:\Users\Christopher\Documents\maya\projects\Maya_mats\images\MayaMats_0091.jpg" arWidth="960" arHeight="540" duration="0" songTitle="" songArtist="" songAlbum="" songCopyrightUrl="" songArtistUrl="" songAudioFileUrl="" stabilizationMode="0" mediaItemType="2" />
    <MediaItem id="170" filePath="C:\Users\Christopher\Documents\maya\projects\Maya_mats\images\MayaMats_0419.jpg" arWidth="960" arHeight="540" duration="0" songTitle="" songArtist="" songAlbum="" songCopyrightUrl="" songArtistUrl="" songAudioFileUrl="" stabilizationMode="0" mediaItemType="2" />
    <MediaItem id="7" filePath="C:\Users\Christopher\Documents\maya\projects\Maya_mats\images\MayaMats_0093.jpg" arWidth="960" arHeight="540" duration="0" songTitle="" songArtist="" songAlbum="" songCopyrightUrl="" songArtistUrl="" songAudioFileUrl="" stabilizationMode="0" mediaItemType="2" />
    <MediaItem id="171" filePath="C:\Users\Christopher\Documents\maya\projects\Maya_mats\images\MayaMats_0001.jpg" arWidth="960" arHeight="540" duration="0" songTitle="" songArtist="" songAlbum="" songCopyrightUrl="" songArtistUrl="" songAudioFileUrl="" stabilizationMode="0" mediaItemType="2" />
    <MediaItem id="8" filePath="C:\Users\Christopher\Documents\maya\projects\Maya_mats\images\MayaMats_0095.jpg" arWidth="960" arHeight="540" duration="0" songTitle="" songArtist="" songAlbum="" songCopyrightUrl="" songArtistUrl="" songAudioFileUrl="" stabilizationMode="0" mediaItemType="2" />
    <MediaItem id="172" filePath="C:\Users\Christopher\Documents\maya\projects\Maya_mats\images\MayaMats_0003.jpg" arWidth="960" arHeight="540" duration="0" songTitle="" songArtist="" songAlbum="" songCopyrightUrl="" songArtistUrl="" songAudioFileUrl="" stabilizationMode="0" mediaItemType="2" />
    <MediaItem id="9" filePath="C:\Users\Christopher\Documents\maya\projects\Maya_mats\images\MayaMats_0097.jpg" arWidth="960" arHeight="540" duration="0" songTitle="" songArtist="" songAlbum="" songCopyrightUrl="" songArtistUrl="" songAudioFileUrl="" stabilizationMode="0" mediaItemType="2" />
    <MediaItem id="173" filePath="C:\Users\Christopher\Documents\maya\projects\Maya_mats\images\MayaMats_0005.jpg" arWidth="960" arHeight="540" duration="0" songTitle="" songArtist="" songAlbum="" songCopyrightUrl="" songArtistUrl="" songAudioFileUrl="" stabilizationMode="0" mediaItemType="2" />
    <MediaItem id="10" filePath="C:\Users\Christopher\Documents\maya\projects\Maya_mats\images\MayaMats_0099.jpg" arWidth="960" arHeight="540" duration="0" songTitle="" songArtist="" songAlbum="" songCopyrightUrl="" songArtistUrl="" songAudioFileUrl="" stabilizationMode="0" mediaItemType="2" />
    <MediaItem id="174" filePath="C:\Users\Christopher\Documents\maya\projects\Maya_mats\images\MayaMats_0007.jpg" arWidth="960" arHeight="540" duration="0" songTitle="" songArtist="" songAlbum="" songCopyrightUrl="" songArtistUrl="" songAudioFileUrl="" stabilizationMode="0" mediaItemType="2" />
    <MediaItem id="11" filePath="C:\Users\Christopher\Documents\maya\projects\Maya_mats\images\MayaMats_0101.jpg" arWidth="960" arHeight="540" duration="0" songTitle="" songArtist="" songAlbum="" songCopyrightUrl="" songArtistUrl="" songAudioFileUrl="" stabilizationMode="0" mediaItemType="2" />
    <MediaItem id="175" filePath="C:\Users\Christopher\Documents\maya\projects\Maya_mats\images\MayaMats_0009.jpg" arWidth="960" arHeight="540" duration="0" songTitle="" songArtist="" songAlbum="" songCopyrightUrl="" songArtistUrl="" songAudioFileUrl="" stabilizationMode="0" mediaItemType="2" />
    <MediaItem id="12" filePath="C:\Users\Christopher\Documents\maya\projects\Maya_mats\images\MayaMats_0103.jpg" arWidth="960" arHeight="540" duration="0" songTitle="" songArtist="" songAlbum="" songCopyrightUrl="" songArtistUrl="" songAudioFileUrl="" stabilizationMode="0" mediaItemType="2" />
    <MediaItem id="176" filePath="C:\Users\Christopher\Documents\maya\projects\Maya_mats\images\MayaMats_0011.jpg" arWidth="960" arHeight="540" duration="0" songTitle="" songArtist="" songAlbum="" songCopyrightUrl="" songArtistUrl="" songAudioFileUrl="" stabilizationMode="0" mediaItemType="2" />
    <MediaItem id="13" filePath="C:\Users\Christopher\Documents\maya\projects\Maya_mats\images\MayaMats_0105.jpg" arWidth="960" arHeight="540" duration="0" songTitle="" songArtist="" songAlbum="" songCopyrightUrl="" songArtistUrl="" songAudioFileUrl="" stabilizationMode="0" mediaItemType="2" />
    <MediaItem id="177" filePath="C:\Users\Christopher\Documents\maya\projects\Maya_mats\images\MayaMats_0013.jpg" arWidth="960" arHeight="540" duration="0" songTitle="" songArtist="" songAlbum="" songCopyrightUrl="" songArtistUrl="" songAudioFileUrl="" stabilizationMode="0" mediaItemType="2" />
    <MediaItem id="14" filePath="C:\Users\Christopher\Documents\maya\projects\Maya_mats\images\MayaMats_0107.jpg" arWidth="960" arHeight="540" duration="0" songTitle="" songArtist="" songAlbum="" songCopyrightUrl="" songArtistUrl="" songAudioFileUrl="" stabilizationMode="0" mediaItemType="2" />
    <MediaItem id="178" filePath="C:\Users\Christopher\Documents\maya\projects\Maya_mats\images\MayaMats_0015.jpg" arWidth="960" arHeight="540" duration="0" songTitle="" songArtist="" songAlbum="" songCopyrightUrl="" songArtistUrl="" songAudioFileUrl="" stabilizationMode="0" mediaItemType="2" />
    <MediaItem id="15" filePath="C:\Users\Christopher\Documents\maya\projects\Maya_mats\images\MayaMats_0109.jpg" arWidth="960" arHeight="540" duration="0" songTitle="" songArtist="" songAlbum="" songCopyrightUrl="" songArtistUrl="" songAudioFileUrl="" stabilizationMode="0" mediaItemType="2" />
    <MediaItem id="179" filePath="C:\Users\Christopher\Documents\maya\projects\Maya_mats\images\MayaMats_0017.jpg" arWidth="960" arHeight="540" duration="0" songTitle="" songArtist="" songAlbum="" songCopyrightUrl="" songArtistUrl="" songAudioFileUrl="" stabilizationMode="0" mediaItemType="2" />
    <MediaItem id="16" filePath="C:\Users\Christopher\Documents\maya\projects\Maya_mats\images\MayaMats_0111.jpg" arWidth="960" arHeight="540" duration="0" songTitle="" songArtist="" songAlbum="" songCopyrightUrl="" songArtistUrl="" songAudioFileUrl="" stabilizationMode="0" mediaItemType="2" />
    <MediaItem id="180" filePath="C:\Users\Christopher\Documents\maya\projects\Maya_mats\images\MayaMats_0019.jpg" arWidth="960" arHeight="540" duration="0" songTitle="" songArtist="" songAlbum="" songCopyrightUrl="" songArtistUrl="" songAudioFileUrl="" stabilizationMode="0" mediaItemType="2" />
    <MediaItem id="17" filePath="C:\Users\Christopher\Documents\maya\projects\Maya_mats\images\MayaMats_0113.jpg" arWidth="960" arHeight="540" duration="0" songTitle="" songArtist="" songAlbum="" songCopyrightUrl="" songArtistUrl="" songAudioFileUrl="" stabilizationMode="0" mediaItemType="2" />
    <MediaItem id="181" filePath="C:\Users\Christopher\Documents\maya\projects\Maya_mats\images\MayaMats_0021.jpg" arWidth="960" arHeight="540" duration="0" songTitle="" songArtist="" songAlbum="" songCopyrightUrl="" songArtistUrl="" songAudioFileUrl="" stabilizationMode="0" mediaItemType="2" />
    <MediaItem id="18" filePath="C:\Users\Christopher\Documents\maya\projects\Maya_mats\images\MayaMats_0115.jpg" arWidth="960" arHeight="540" duration="0" songTitle="" songArtist="" songAlbum="" songCopyrightUrl="" songArtistUrl="" songAudioFileUrl="" stabilizationMode="0" mediaItemType="2" />
    <MediaItem id="182" filePath="C:\Users\Christopher\Documents\maya\projects\Maya_mats\images\MayaMats_0023.jpg" arWidth="960" arHeight="540" duration="0" songTitle="" songArtist="" songAlbum="" songCopyrightUrl="" songArtistUrl="" songAudioFileUrl="" stabilizationMode="0" mediaItemType="2" />
    <MediaItem id="19" filePath="C:\Users\Christopher\Documents\maya\projects\Maya_mats\images\MayaMats_0117.jpg" arWidth="960" arHeight="540" duration="0" songTitle="" songArtist="" songAlbum="" songCopyrightUrl="" songArtistUrl="" songAudioFileUrl="" stabilizationMode="0" mediaItemType="2" />
    <MediaItem id="183" filePath="C:\Users\Christopher\Documents\maya\projects\Maya_mats\images\MayaMats_0025.jpg" arWidth="960" arHeight="540" duration="0" songTitle="" songArtist="" songAlbum="" songCopyrightUrl="" songArtistUrl="" songAudioFileUrl="" stabilizationMode="0" mediaItemType="2" />
    <MediaItem id="20" filePath="C:\Users\Christopher\Documents\maya\projects\Maya_mats\images\MayaMats_0119.jpg" arWidth="960" arHeight="540" duration="0" songTitle="" songArtist="" songAlbum="" songCopyrightUrl="" songArtistUrl="" songAudioFileUrl="" stabilizationMode="0" mediaItemType="2" />
    <MediaItem id="184" filePath="C:\Users\Christopher\Documents\maya\projects\Maya_mats\images\MayaMats_0027.jpg" arWidth="960" arHeight="540" duration="0" songTitle="" songArtist="" songAlbum="" songCopyrightUrl="" songArtistUrl="" songAudioFileUrl="" stabilizationMode="0" mediaItemType="2" />
    <MediaItem id="21" filePath="C:\Users\Christopher\Documents\maya\projects\Maya_mats\images\MayaMats_0121.jpg" arWidth="960" arHeight="540" duration="0" songTitle="" songArtist="" songAlbum="" songCopyrightUrl="" songArtistUrl="" songAudioFileUrl="" stabilizationMode="0" mediaItemType="2" />
    <MediaItem id="185" filePath="C:\Users\Christopher\Documents\maya\projects\Maya_mats\images\MayaMats_0029.jpg" arWidth="960" arHeight="540" duration="0" songTitle="" songArtist="" songAlbum="" songCopyrightUrl="" songArtistUrl="" songAudioFileUrl="" stabilizationMode="0" mediaItemType="2" />
    <MediaItem id="22" filePath="C:\Users\Christopher\Documents\maya\projects\Maya_mats\images\MayaMats_0123.jpg" arWidth="960" arHeight="540" duration="0" songTitle="" songArtist="" songAlbum="" songCopyrightUrl="" songArtistUrl="" songAudioFileUrl="" stabilizationMode="0" mediaItemType="2" />
    <MediaItem id="186" filePath="C:\Users\Christopher\Documents\maya\projects\Maya_mats\images\MayaMats_0031.jpg" arWidth="960" arHeight="540" duration="0" songTitle="" songArtist="" songAlbum="" songCopyrightUrl="" songArtistUrl="" songAudioFileUrl="" stabilizationMode="0" mediaItemType="2" />
    <MediaItem id="23" filePath="C:\Users\Christopher\Documents\maya\projects\Maya_mats\images\MayaMats_0125.jpg" arWidth="960" arHeight="540" duration="0" songTitle="" songArtist="" songAlbum="" songCopyrightUrl="" songArtistUrl="" songAudioFileUrl="" stabilizationMode="0" mediaItemType="2" />
    <MediaItem id="187" filePath="C:\Users\Christopher\Documents\maya\projects\Maya_mats\images\MayaMats_0033.jpg" arWidth="960" arHeight="540" duration="0" songTitle="" songArtist="" songAlbum="" songCopyrightUrl="" songArtistUrl="" songAudioFileUrl="" stabilizationMode="0" mediaItemType="2" />
    <MediaItem id="24" filePath="C:\Users\Christopher\Documents\maya\projects\Maya_mats\images\MayaMats_0127.jpg" arWidth="960" arHeight="540" duration="0" songTitle="" songArtist="" songAlbum="" songCopyrightUrl="" songArtistUrl="" songAudioFileUrl="" stabilizationMode="0" mediaItemType="2" />
    <MediaItem id="188" filePath="C:\Users\Christopher\Documents\maya\projects\Maya_mats\images\MayaMats_0035.jpg" arWidth="960" arHeight="540" duration="0" songTitle="" songArtist="" songAlbum="" songCopyrightUrl="" songArtistUrl="" songAudioFileUrl="" stabilizationMode="0" mediaItemType="2" />
    <MediaItem id="25" filePath="C:\Users\Christopher\Documents\maya\projects\Maya_mats\images\MayaMats_0129.jpg" arWidth="960" arHeight="540" duration="0" songTitle="" songArtist="" songAlbum="" songCopyrightUrl="" songArtistUrl="" songAudioFileUrl="" stabilizationMode="0" mediaItemType="2" />
    <MediaItem id="189" filePath="C:\Users\Christopher\Documents\maya\projects\Maya_mats\images\MayaMats_0037.jpg" arWidth="960" arHeight="540" duration="0" songTitle="" songArtist="" songAlbum="" songCopyrightUrl="" songArtistUrl="" songAudioFileUrl="" stabilizationMode="0" mediaItemType="2" />
    <MediaItem id="26" filePath="C:\Users\Christopher\Documents\maya\projects\Maya_mats\images\MayaMats_0131.jpg" arWidth="960" arHeight="540" duration="0" songTitle="" songArtist="" songAlbum="" songCopyrightUrl="" songArtistUrl="" songAudioFileUrl="" stabilizationMode="0" mediaItemType="2" />
    <MediaItem id="190" filePath="C:\Users\Christopher\Documents\maya\projects\Maya_mats\images\MayaMats_0039.jpg" arWidth="960" arHeight="540" duration="0" songTitle="" songArtist="" songAlbum="" songCopyrightUrl="" songArtistUrl="" songAudioFileUrl="" stabilizationMode="0" mediaItemType="2" />
    <MediaItem id="27" filePath="C:\Users\Christopher\Documents\maya\projects\Maya_mats\images\MayaMats_0133.jpg" arWidth="960" arHeight="540" duration="0" songTitle="" songArtist="" songAlbum="" songCopyrightUrl="" songArtistUrl="" songAudioFileUrl="" stabilizationMode="0" mediaItemType="2" />
    <MediaItem id="191" filePath="C:\Users\Christopher\Documents\maya\projects\Maya_mats\images\MayaMats_0041.jpg" arWidth="960" arHeight="540" duration="0" songTitle="" songArtist="" songAlbum="" songCopyrightUrl="" songArtistUrl="" songAudioFileUrl="" stabilizationMode="0" mediaItemType="2" />
    <MediaItem id="28" filePath="C:\Users\Christopher\Documents\maya\projects\Maya_mats\images\MayaMats_0135.jpg" arWidth="960" arHeight="540" duration="0" songTitle="" songArtist="" songAlbum="" songCopyrightUrl="" songArtistUrl="" songAudioFileUrl="" stabilizationMode="0" mediaItemType="2" />
    <MediaItem id="192" filePath="C:\Users\Christopher\Documents\maya\projects\Maya_mats\images\MayaMats_0043.jpg" arWidth="960" arHeight="540" duration="0" songTitle="" songArtist="" songAlbum="" songCopyrightUrl="" songArtistUrl="" songAudioFileUrl="" stabilizationMode="0" mediaItemType="2" />
    <MediaItem id="29" filePath="C:\Users\Christopher\Documents\maya\projects\Maya_mats\images\MayaMats_0137.jpg" arWidth="960" arHeight="540" duration="0" songTitle="" songArtist="" songAlbum="" songCopyrightUrl="" songArtistUrl="" songAudioFileUrl="" stabilizationMode="0" mediaItemType="2" />
    <MediaItem id="193" filePath="C:\Users\Christopher\Documents\maya\projects\Maya_mats\images\MayaMats_0045.jpg" arWidth="960" arHeight="540" duration="0" songTitle="" songArtist="" songAlbum="" songCopyrightUrl="" songArtistUrl="" songAudioFileUrl="" stabilizationMode="0" mediaItemType="2" />
    <MediaItem id="30" filePath="C:\Users\Christopher\Documents\maya\projects\Maya_mats\images\MayaMats_0139.jpg" arWidth="960" arHeight="540" duration="0" songTitle="" songArtist="" songAlbum="" songCopyrightUrl="" songArtistUrl="" songAudioFileUrl="" stabilizationMode="0" mediaItemType="2" />
    <MediaItem id="194" filePath="C:\Users\Christopher\Documents\maya\projects\Maya_mats\images\MayaMats_0047.jpg" arWidth="960" arHeight="540" duration="0" songTitle="" songArtist="" songAlbum="" songCopyrightUrl="" songArtistUrl="" songAudioFileUrl="" stabilizationMode="0" mediaItemType="2" />
    <MediaItem id="31" filePath="C:\Users\Christopher\Documents\maya\projects\Maya_mats\images\MayaMats_0141.jpg" arWidth="960" arHeight="540" duration="0" songTitle="" songArtist="" songAlbum="" songCopyrightUrl="" songArtistUrl="" songAudioFileUrl="" stabilizationMode="0" mediaItemType="2" />
    <MediaItem id="195" filePath="C:\Users\Christopher\Documents\maya\projects\Maya_mats\images\MayaMats_0049.jpg" arWidth="960" arHeight="540" duration="0" songTitle="" songArtist="" songAlbum="" songCopyrightUrl="" songArtistUrl="" songAudioFileUrl="" stabilizationMode="0" mediaItemType="2" />
    <MediaItem id="32" filePath="C:\Users\Christopher\Documents\maya\projects\Maya_mats\images\MayaMats_0143.jpg" arWidth="960" arHeight="540" duration="0" songTitle="" songArtist="" songAlbum="" songCopyrightUrl="" songArtistUrl="" songAudioFileUrl="" stabilizationMode="0" mediaItemType="2" />
    <MediaItem id="196" filePath="C:\Users\Christopher\Documents\maya\projects\Maya_mats\images\MayaMats_0051.jpg" arWidth="960" arHeight="540" duration="0" songTitle="" songArtist="" songAlbum="" songCopyrightUrl="" songArtistUrl="" songAudioFileUrl="" stabilizationMode="0" mediaItemType="2" />
    <MediaItem id="33" filePath="C:\Users\Christopher\Documents\maya\projects\Maya_mats\images\MayaMats_0145.jpg" arWidth="960" arHeight="540" duration="0" songTitle="" songArtist="" songAlbum="" songCopyrightUrl="" songArtistUrl="" songAudioFileUrl="" stabilizationMode="0" mediaItemType="2" />
    <MediaItem id="197" filePath="C:\Users\Christopher\Documents\maya\projects\Maya_mats\images\MayaMats_0053.jpg" arWidth="960" arHeight="540" duration="0" songTitle="" songArtist="" songAlbum="" songCopyrightUrl="" songArtistUrl="" songAudioFileUrl="" stabilizationMode="0" mediaItemType="2" />
    <MediaItem id="34" filePath="C:\Users\Christopher\Documents\maya\projects\Maya_mats\images\MayaMats_0147.jpg" arWidth="960" arHeight="540" duration="0" songTitle="" songArtist="" songAlbum="" songCopyrightUrl="" songArtistUrl="" songAudioFileUrl="" stabilizationMode="0" mediaItemType="2" />
    <MediaItem id="198" filePath="C:\Users\Christopher\Documents\maya\projects\Maya_mats\images\MayaMats_0055.jpg" arWidth="960" arHeight="540" duration="0" songTitle="" songArtist="" songAlbum="" songCopyrightUrl="" songArtistUrl="" songAudioFileUrl="" stabilizationMode="0" mediaItemType="2" />
    <MediaItem id="35" filePath="C:\Users\Christopher\Documents\maya\projects\Maya_mats\images\MayaMats_0149.jpg" arWidth="960" arHeight="540" duration="0" songTitle="" songArtist="" songAlbum="" songCopyrightUrl="" songArtistUrl="" songAudioFileUrl="" stabilizationMode="0" mediaItemType="2" />
    <MediaItem id="199" filePath="C:\Users\Christopher\Documents\maya\projects\Maya_mats\images\MayaMats_0057.jpg" arWidth="960" arHeight="540" duration="0" songTitle="" songArtist="" songAlbum="" songCopyrightUrl="" songArtistUrl="" songAudioFileUrl="" stabilizationMode="0" mediaItemType="2" />
    <MediaItem id="36" filePath="C:\Users\Christopher\Documents\maya\projects\Maya_mats\images\MayaMats_0151.jpg" arWidth="960" arHeight="540" duration="0" songTitle="" songArtist="" songAlbum="" songCopyrightUrl="" songArtistUrl="" songAudioFileUrl="" stabilizationMode="0" mediaItemType="2" />
    <MediaItem id="200" filePath="C:\Users\Christopher\Documents\maya\projects\Maya_mats\images\MayaMats_0059.jpg" arWidth="960" arHeight="540" duration="0" songTitle="" songArtist="" songAlbum="" songCopyrightUrl="" songArtistUrl="" songAudioFileUrl="" stabilizationMode="0" mediaItemType="2" />
    <MediaItem id="37" filePath="C:\Users\Christopher\Documents\maya\projects\Maya_mats\images\MayaMats_0153.jpg" arWidth="960" arHeight="540" duration="0" songTitle="" songArtist="" songAlbum="" songCopyrightUrl="" songArtistUrl="" songAudioFileUrl="" stabilizationMode="0" mediaItemType="2" />
    <MediaItem id="201" filePath="C:\Users\Christopher\Documents\maya\projects\Maya_mats\images\MayaMats_0061.jpg" arWidth="960" arHeight="540" duration="0" songTitle="" songArtist="" songAlbum="" songCopyrightUrl="" songArtistUrl="" songAudioFileUrl="" stabilizationMode="0" mediaItemType="2" />
    <MediaItem id="38" filePath="C:\Users\Christopher\Documents\maya\projects\Maya_mats\images\MayaMats_0155.jpg" arWidth="960" arHeight="540" duration="0" songTitle="" songArtist="" songAlbum="" songCopyrightUrl="" songArtistUrl="" songAudioFileUrl="" stabilizationMode="0" mediaItemType="2" />
    <MediaItem id="202" filePath="C:\Users\Christopher\Documents\maya\projects\Maya_mats\images\MayaMats_0063.jpg" arWidth="960" arHeight="540" duration="0" songTitle="" songArtist="" songAlbum="" songCopyrightUrl="" songArtistUrl="" songAudioFileUrl="" stabilizationMode="0" mediaItemType="2" />
    <MediaItem id="39" filePath="C:\Users\Christopher\Documents\maya\projects\Maya_mats\images\MayaMats_0157.jpg" arWidth="960" arHeight="540" duration="0" songTitle="" songArtist="" songAlbum="" songCopyrightUrl="" songArtistUrl="" songAudioFileUrl="" stabilizationMode="0" mediaItemType="2" />
    <MediaItem id="203" filePath="C:\Users\Christopher\Documents\maya\projects\Maya_mats\images\MayaMats_0065.jpg" arWidth="960" arHeight="540" duration="0" songTitle="" songArtist="" songAlbum="" songCopyrightUrl="" songArtistUrl="" songAudioFileUrl="" stabilizationMode="0" mediaItemType="2" />
    <MediaItem id="40" filePath="C:\Users\Christopher\Documents\maya\projects\Maya_mats\images\MayaMats_0159.jpg" arWidth="960" arHeight="540" duration="0" songTitle="" songArtist="" songAlbum="" songCopyrightUrl="" songArtistUrl="" songAudioFileUrl="" stabilizationMode="0" mediaItemType="2" />
    <MediaItem id="204" filePath="C:\Users\Christopher\Documents\maya\projects\Maya_mats\images\MayaMats_0067.jpg" arWidth="960" arHeight="540" duration="0" songTitle="" songArtist="" songAlbum="" songCopyrightUrl="" songArtistUrl="" songAudioFileUrl="" stabilizationMode="0" mediaItemType="2" />
    <MediaItem id="41" filePath="C:\Users\Christopher\Documents\maya\projects\Maya_mats\images\MayaMats_0161.jpg" arWidth="960" arHeight="540" duration="0" songTitle="" songArtist="" songAlbum="" songCopyrightUrl="" songArtistUrl="" songAudioFileUrl="" stabilizationMode="0" mediaItemType="2" />
    <MediaItem id="205" filePath="C:\Users\Christopher\Documents\maya\projects\Maya_mats\images\MayaMats_0069.jpg" arWidth="960" arHeight="540" duration="0" songTitle="" songArtist="" songAlbum="" songCopyrightUrl="" songArtistUrl="" songAudioFileUrl="" stabilizationMode="0" mediaItemType="2" />
    <MediaItem id="42" filePath="C:\Users\Christopher\Documents\maya\projects\Maya_mats\images\MayaMats_0163.jpg" arWidth="960" arHeight="540" duration="0" songTitle="" songArtist="" songAlbum="" songCopyrightUrl="" songArtistUrl="" songAudioFileUrl="" stabilizationMode="0" mediaItemType="2" />
    <MediaItem id="206" filePath="C:\Users\Christopher\Documents\maya\projects\Maya_mats\images\MayaMats_0071.jpg" arWidth="960" arHeight="540" duration="0" songTitle="" songArtist="" songAlbum="" songCopyrightUrl="" songArtistUrl="" songAudioFileUrl="" stabilizationMode="0" mediaItemType="2" />
    <MediaItem id="43" filePath="C:\Users\Christopher\Documents\maya\projects\Maya_mats\images\MayaMats_0165.jpg" arWidth="960" arHeight="540" duration="0" songTitle="" songArtist="" songAlbum="" songCopyrightUrl="" songArtistUrl="" songAudioFileUrl="" stabilizationMode="0" mediaItemType="2" />
    <MediaItem id="207" filePath="C:\Users\Christopher\Documents\maya\projects\Maya_mats\images\MayaMats_0073.jpg" arWidth="960" arHeight="540" duration="0" songTitle="" songArtist="" songAlbum="" songCopyrightUrl="" songArtistUrl="" songAudioFileUrl="" stabilizationMode="0" mediaItemType="2" />
    <MediaItem id="44" filePath="C:\Users\Christopher\Documents\maya\projects\Maya_mats\images\MayaMats_0167.jpg" arWidth="960" arHeight="540" duration="0" songTitle="" songArtist="" songAlbum="" songCopyrightUrl="" songArtistUrl="" songAudioFileUrl="" stabilizationMode="0" mediaItemType="2" />
    <MediaItem id="208" filePath="C:\Users\Christopher\Documents\maya\projects\Maya_mats\images\MayaMats_0075.jpg" arWidth="960" arHeight="540" duration="0" songTitle="" songArtist="" songAlbum="" songCopyrightUrl="" songArtistUrl="" songAudioFileUrl="" stabilizationMode="0" mediaItemType="2" />
    <MediaItem id="45" filePath="C:\Users\Christopher\Documents\maya\projects\Maya_mats\images\MayaMats_0169.jpg" arWidth="960" arHeight="540" duration="0" songTitle="" songArtist="" songAlbum="" songCopyrightUrl="" songArtistUrl="" songAudioFileUrl="" stabilizationMode="0" mediaItemType="2" />
    <MediaItem id="209" filePath="C:\Users\Christopher\Documents\maya\projects\Maya_mats\images\MayaMats_0077.jpg" arWidth="960" arHeight="540" duration="0" songTitle="" songArtist="" songAlbum="" songCopyrightUrl="" songArtistUrl="" songAudioFileUrl="" stabilizationMode="0" mediaItemType="2" />
    <MediaItem id="46" filePath="C:\Users\Christopher\Documents\maya\projects\Maya_mats\images\MayaMats_0171.jpg" arWidth="960" arHeight="540" duration="0" songTitle="" songArtist="" songAlbum="" songCopyrightUrl="" songArtistUrl="" songAudioFileUrl="" stabilizationMode="0" mediaItemType="2" />
    <MediaItem id="210" filePath="C:\Users\Christopher\Documents\maya\projects\Maya_mats\images\MayaMats_0079.jpg" arWidth="960" arHeight="540" duration="0" songTitle="" songArtist="" songAlbum="" songCopyrightUrl="" songArtistUrl="" songAudioFileUrl="" stabilizationMode="0" mediaItemType="2" />
    <MediaItem id="47" filePath="C:\Users\Christopher\Documents\maya\projects\Maya_mats\images\MayaMats_0173.jpg" arWidth="960" arHeight="540" duration="0" songTitle="" songArtist="" songAlbum="" songCopyrightUrl="" songArtistUrl="" songAudioFileUrl="" stabilizationMode="0" mediaItemType="2" />
    <MediaItem id="48" filePath="C:\Users\Christopher\Documents\maya\projects\Maya_mats\images\MayaMats_0175.jpg" arWidth="960" arHeight="540" duration="0" songTitle="" songArtist="" songAlbum="" songCopyrightUrl="" songArtistUrl="" songAudioFileUrl="" stabilizationMode="0" mediaItemType="2" />
    <MediaItem id="49" filePath="C:\Users\Christopher\Documents\maya\projects\Maya_mats\images\MayaMats_0177.jpg" arWidth="960" arHeight="540" duration="0" songTitle="" songArtist="" songAlbum="" songCopyrightUrl="" songArtistUrl="" songAudioFileUrl="" stabilizationMode="0" mediaItemType="2" />
    <MediaItem id="50" filePath="C:\Users\Christopher\Documents\maya\projects\Maya_mats\images\MayaMats_0179.jpg" arWidth="960" arHeight="540" duration="0" songTitle="" songArtist="" songAlbum="" songCopyrightUrl="" songArtistUrl="" songAudioFileUrl="" stabilizationMode="0" mediaItemType="2" />
    <MediaItem id="51" filePath="C:\Users\Christopher\Documents\maya\projects\Maya_mats\images\MayaMats_0181.jpg" arWidth="960" arHeight="540" duration="0" songTitle="" songArtist="" songAlbum="" songCopyrightUrl="" songArtistUrl="" songAudioFileUrl="" stabilizationMode="0" mediaItemType="2" />
    <MediaItem id="52" filePath="C:\Users\Christopher\Documents\maya\projects\Maya_mats\images\MayaMats_0183.jpg" arWidth="960" arHeight="540" duration="0" songTitle="" songArtist="" songAlbum="" songCopyrightUrl="" songArtistUrl="" songAudioFileUrl="" stabilizationMode="0" mediaItemType="2" />
    <MediaItem id="53" filePath="C:\Users\Christopher\Documents\maya\projects\Maya_mats\images\MayaMats_0185.jpg" arWidth="960" arHeight="540" duration="0" songTitle="" songArtist="" songAlbum="" songCopyrightUrl="" songArtistUrl="" songAudioFileUrl="" stabilizationMode="0" mediaItemType="2" />
    <MediaItem id="54" filePath="C:\Users\Christopher\Documents\maya\projects\Maya_mats\images\MayaMats_0187.jpg" arWidth="960" arHeight="540" duration="0" songTitle="" songArtist="" songAlbum="" songCopyrightUrl="" songArtistUrl="" songAudioFileUrl="" stabilizationMode="0" mediaItemType="2" />
    <MediaItem id="55" filePath="C:\Users\Christopher\Documents\maya\projects\Maya_mats\images\MayaMats_0189.jpg" arWidth="960" arHeight="540" duration="0" songTitle="" songArtist="" songAlbum="" songCopyrightUrl="" songArtistUrl="" songAudioFileUrl="" stabilizationMode="0" mediaItemType="2" />
    <MediaItem id="56" filePath="C:\Users\Christopher\Documents\maya\projects\Maya_mats\images\MayaMats_0191.jpg" arWidth="960" arHeight="540" duration="0" songTitle="" songArtist="" songAlbum="" songCopyrightUrl="" songArtistUrl="" songAudioFileUrl="" stabilizationMode="0" mediaItemType="2" />
    <MediaItem id="57" filePath="C:\Users\Christopher\Documents\maya\projects\Maya_mats\images\MayaMats_0193.jpg" arWidth="960" arHeight="540" duration="0" songTitle="" songArtist="" songAlbum="" songCopyrightUrl="" songArtistUrl="" songAudioFileUrl="" stabilizationMode="0" mediaItemType="2" />
    <MediaItem id="58" filePath="C:\Users\Christopher\Documents\maya\projects\Maya_mats\images\MayaMats_0195.jpg" arWidth="960" arHeight="540" duration="0" songTitle="" songArtist="" songAlbum="" songCopyrightUrl="" songArtistUrl="" songAudioFileUrl="" stabilizationMode="0" mediaItemType="2" />
    <MediaItem id="59" filePath="C:\Users\Christopher\Documents\maya\projects\Maya_mats\images\MayaMats_0197.jpg" arWidth="960" arHeight="540" duration="0" songTitle="" songArtist="" songAlbum="" songCopyrightUrl="" songArtistUrl="" songAudioFileUrl="" stabilizationMode="0" mediaItemType="2" />
    <MediaItem id="60" filePath="C:\Users\Christopher\Documents\maya\projects\Maya_mats\images\MayaMats_0199.jpg" arWidth="960" arHeight="540" duration="0" songTitle="" songArtist="" songAlbum="" songCopyrightUrl="" songArtistUrl="" songAudioFileUrl="" stabilizationMode="0" mediaItemType="2" />
    <MediaItem id="61" filePath="C:\Users\Christopher\Documents\maya\projects\Maya_mats\images\MayaMats_0201.jpg" arWidth="960" arHeight="540" duration="0" songTitle="" songArtist="" songAlbum="" songCopyrightUrl="" songArtistUrl="" songAudioFileUrl="" stabilizationMode="0" mediaItemType="2" />
    <MediaItem id="62" filePath="C:\Users\Christopher\Documents\maya\projects\Maya_mats\images\MayaMats_0203.jpg" arWidth="960" arHeight="540" duration="0" songTitle="" songArtist="" songAlbum="" songCopyrightUrl="" songArtistUrl="" songAudioFileUrl="" stabilizationMode="0" mediaItemType="2" />
    <MediaItem id="63" filePath="C:\Users\Christopher\Documents\maya\projects\Maya_mats\images\MayaMats_0205.jpg" arWidth="960" arHeight="540" duration="0" songTitle="" songArtist="" songAlbum="" songCopyrightUrl="" songArtistUrl="" songAudioFileUrl="" stabilizationMode="0" mediaItemType="2" />
    <MediaItem id="64" filePath="C:\Users\Christopher\Documents\maya\projects\Maya_mats\images\MayaMats_0207.jpg" arWidth="960" arHeight="540" duration="0" songTitle="" songArtist="" songAlbum="" songCopyrightUrl="" songArtistUrl="" songAudioFileUrl="" stabilizationMode="0" mediaItemType="2" />
    <MediaItem id="65" filePath="C:\Users\Christopher\Documents\maya\projects\Maya_mats\images\MayaMats_0209.jpg" arWidth="960" arHeight="540" duration="0" songTitle="" songArtist="" songAlbum="" songCopyrightUrl="" songArtistUrl="" songAudioFileUrl="" stabilizationMode="0" mediaItemType="2" />
    <MediaItem id="66" filePath="C:\Users\Christopher\Documents\maya\projects\Maya_mats\images\MayaMats_0211.jpg" arWidth="960" arHeight="540" duration="0" songTitle="" songArtist="" songAlbum="" songCopyrightUrl="" songArtistUrl="" songAudioFileUrl="" stabilizationMode="0" mediaItemType="2" />
    <MediaItem id="67" filePath="C:\Users\Christopher\Documents\maya\projects\Maya_mats\images\MayaMats_0213.jpg" arWidth="960" arHeight="540" duration="0" songTitle="" songArtist="" songAlbum="" songCopyrightUrl="" songArtistUrl="" songAudioFileUrl="" stabilizationMode="0" mediaItemType="2" />
    <MediaItem id="68" filePath="C:\Users\Christopher\Documents\maya\projects\Maya_mats\images\MayaMats_0215.jpg" arWidth="960" arHeight="540" duration="0" songTitle="" songArtist="" songAlbum="" songCopyrightUrl="" songArtistUrl="" songAudioFileUrl="" stabilizationMode="0" mediaItemType="2" />
    <MediaItem id="69" filePath="C:\Users\Christopher\Documents\maya\projects\Maya_mats\images\MayaMats_0217.jpg" arWidth="960" arHeight="540" duration="0" songTitle="" songArtist="" songAlbum="" songCopyrightUrl="" songArtistUrl="" songAudioFileUrl="" stabilizationMode="0" mediaItemType="2" />
    <MediaItem id="70" filePath="C:\Users\Christopher\Documents\maya\projects\Maya_mats\images\MayaMats_0219.jpg" arWidth="960" arHeight="540" duration="0" songTitle="" songArtist="" songAlbum="" songCopyrightUrl="" songArtistUrl="" songAudioFileUrl="" stabilizationMode="0" mediaItemType="2" />
    <MediaItem id="71" filePath="C:\Users\Christopher\Documents\maya\projects\Maya_mats\images\MayaMats_0221.jpg" arWidth="960" arHeight="540" duration="0" songTitle="" songArtist="" songAlbum="" songCopyrightUrl="" songArtistUrl="" songAudioFileUrl="" stabilizationMode="0" mediaItemType="2" />
    <MediaItem id="72" filePath="C:\Users\Christopher\Documents\maya\projects\Maya_mats\images\MayaMats_0223.jpg" arWidth="960" arHeight="540" duration="0" songTitle="" songArtist="" songAlbum="" songCopyrightUrl="" songArtistUrl="" songAudioFileUrl="" stabilizationMode="0" mediaItemType="2" />
    <MediaItem id="73" filePath="C:\Users\Christopher\Documents\maya\projects\Maya_mats\images\MayaMats_0225.jpg" arWidth="960" arHeight="540" duration="0" songTitle="" songArtist="" songAlbum="" songCopyrightUrl="" songArtistUrl="" songAudioFileUrl="" stabilizationMode="0" mediaItemType="2" />
    <MediaItem id="74" filePath="C:\Users\Christopher\Documents\maya\projects\Maya_mats\images\MayaMats_0227.jpg" arWidth="960" arHeight="540" duration="0" songTitle="" songArtist="" songAlbum="" songCopyrightUrl="" songArtistUrl="" songAudioFileUrl="" stabilizationMode="0" mediaItemType="2" />
    <MediaItem id="75" filePath="C:\Users\Christopher\Documents\maya\projects\Maya_mats\images\MayaMats_0229.jpg" arWidth="960" arHeight="540" duration="0" songTitle="" songArtist="" songAlbum="" songCopyrightUrl="" songArtistUrl="" songAudioFileUrl="" stabilizationMode="0" mediaItemType="2" />
    <MediaItem id="76" filePath="C:\Users\Christopher\Documents\maya\projects\Maya_mats\images\MayaMats_0231.jpg" arWidth="960" arHeight="540" duration="0" songTitle="" songArtist="" songAlbum="" songCopyrightUrl="" songArtistUrl="" songAudioFileUrl="" stabilizationMode="0" mediaItemType="2" />
    <MediaItem id="77" filePath="C:\Users\Christopher\Documents\maya\projects\Maya_mats\images\MayaMats_0233.jpg" arWidth="960" arHeight="540" duration="0" songTitle="" songArtist="" songAlbum="" songCopyrightUrl="" songArtistUrl="" songAudioFileUrl="" stabilizationMode="0" mediaItemType="2" />
    <MediaItem id="78" filePath="C:\Users\Christopher\Documents\maya\projects\Maya_mats\images\MayaMats_0235.jpg" arWidth="960" arHeight="540" duration="0" songTitle="" songArtist="" songAlbum="" songCopyrightUrl="" songArtistUrl="" songAudioFileUrl="" stabilizationMode="0" mediaItemType="2" />
    <MediaItem id="79" filePath="C:\Users\Christopher\Documents\maya\projects\Maya_mats\images\MayaMats_0237.jpg" arWidth="960" arHeight="540" duration="0" songTitle="" songArtist="" songAlbum="" songCopyrightUrl="" songArtistUrl="" songAudioFileUrl="" stabilizationMode="0" mediaItemType="2" />
    <MediaItem id="80" filePath="C:\Users\Christopher\Documents\maya\projects\Maya_mats\images\MayaMats_0239.jpg" arWidth="960" arHeight="540" duration="0" songTitle="" songArtist="" songAlbum="" songCopyrightUrl="" songArtistUrl="" songAudioFileUrl="" stabilizationMode="0" mediaItemType="2" />
    <MediaItem id="81" filePath="C:\Users\Christopher\Documents\maya\projects\Maya_mats\images\MayaMats_0241.jpg" arWidth="960" arHeight="540" duration="0" songTitle="" songArtist="" songAlbum="" songCopyrightUrl="" songArtistUrl="" songAudioFileUrl="" stabilizationMode="0" mediaItemType="2" />
    <MediaItem id="82" filePath="C:\Users\Christopher\Documents\maya\projects\Maya_mats\images\MayaMats_0243.jpg" arWidth="960" arHeight="540" duration="0" songTitle="" songArtist="" songAlbum="" songCopyrightUrl="" songArtistUrl="" songAudioFileUrl="" stabilizationMode="0" mediaItemType="2" />
    <MediaItem id="83" filePath="C:\Users\Christopher\Documents\maya\projects\Maya_mats\images\MayaMats_0245.jpg" arWidth="960" arHeight="540" duration="0" songTitle="" songArtist="" songAlbum="" songCopyrightUrl="" songArtistUrl="" songAudioFileUrl="" stabilizationMode="0" mediaItemType="2" />
    <MediaItem id="84" filePath="C:\Users\Christopher\Documents\maya\projects\Maya_mats\images\MayaMats_0247.jpg" arWidth="960" arHeight="540" duration="0" songTitle="" songArtist="" songAlbum="" songCopyrightUrl="" songArtistUrl="" songAudioFileUrl="" stabilizationMode="0" mediaItemType="2" />
    <MediaItem id="85" filePath="C:\Users\Christopher\Documents\maya\projects\Maya_mats\images\MayaMats_0249.jpg" arWidth="960" arHeight="540" duration="0" songTitle="" songArtist="" songAlbum="" songCopyrightUrl="" songArtistUrl="" songAudioFileUrl="" stabilizationMode="0" mediaItemType="2" />
    <MediaItem id="86" filePath="C:\Users\Christopher\Documents\maya\projects\Maya_mats\images\MayaMats_0251.jpg" arWidth="960" arHeight="540" duration="0" songTitle="" songArtist="" songAlbum="" songCopyrightUrl="" songArtistUrl="" songAudioFileUrl="" stabilizationMode="0" mediaItemType="2" />
    <MediaItem id="87" filePath="C:\Users\Christopher\Documents\maya\projects\Maya_mats\images\MayaMats_0253.jpg" arWidth="960" arHeight="540" duration="0" songTitle="" songArtist="" songAlbum="" songCopyrightUrl="" songArtistUrl="" songAudioFileUrl="" stabilizationMode="0" mediaItemType="2" />
    <MediaItem id="88" filePath="C:\Users\Christopher\Documents\maya\projects\Maya_mats\images\MayaMats_0255.jpg" arWidth="960" arHeight="540" duration="0" songTitle="" songArtist="" songAlbum="" songCopyrightUrl="" songArtistUrl="" songAudioFileUrl="" stabilizationMode="0" mediaItemType="2" />
    <MediaItem id="89" filePath="C:\Users\Christopher\Documents\maya\projects\Maya_mats\images\MayaMats_0257.jpg" arWidth="960" arHeight="540" duration="0" songTitle="" songArtist="" songAlbum="" songCopyrightUrl="" songArtistUrl="" songAudioFileUrl="" stabilizationMode="0" mediaItemType="2" />
    <MediaItem id="90" filePath="C:\Users\Christopher\Documents\maya\projects\Maya_mats\images\MayaMats_0259.jpg" arWidth="960" arHeight="540" duration="0" songTitle="" songArtist="" songAlbum="" songCopyrightUrl="" songArtistUrl="" songAudioFileUrl="" stabilizationMode="0" mediaItemType="2" />
    <MediaItem id="91" filePath="C:\Users\Christopher\Documents\maya\projects\Maya_mats\images\MayaMats_0261.jpg" arWidth="960" arHeight="540" duration="0" songTitle="" songArtist="" songAlbum="" songCopyrightUrl="" songArtistUrl="" songAudioFileUrl="" stabilizationMode="0" mediaItemType="2" />
    <MediaItem id="92" filePath="C:\Users\Christopher\Documents\maya\projects\Maya_mats\images\MayaMats_0263.jpg" arWidth="960" arHeight="540" duration="0" songTitle="" songArtist="" songAlbum="" songCopyrightUrl="" songArtistUrl="" songAudioFileUrl="" stabilizationMode="0" mediaItemType="2" />
    <MediaItem id="93" filePath="C:\Users\Christopher\Documents\maya\projects\Maya_mats\images\MayaMats_0265.jpg" arWidth="960" arHeight="540" duration="0" songTitle="" songArtist="" songAlbum="" songCopyrightUrl="" songArtistUrl="" songAudioFileUrl="" stabilizationMode="0" mediaItemType="2" />
    <MediaItem id="94" filePath="C:\Users\Christopher\Documents\maya\projects\Maya_mats\images\MayaMats_0267.jpg" arWidth="960" arHeight="540" duration="0" songTitle="" songArtist="" songAlbum="" songCopyrightUrl="" songArtistUrl="" songAudioFileUrl="" stabilizationMode="0" mediaItemType="2" />
    <MediaItem id="95" filePath="C:\Users\Christopher\Documents\maya\projects\Maya_mats\images\MayaMats_0269.jpg" arWidth="960" arHeight="540" duration="0" songTitle="" songArtist="" songAlbum="" songCopyrightUrl="" songArtistUrl="" songAudioFileUrl="" stabilizationMode="0" mediaItemType="2" />
    <MediaItem id="96" filePath="C:\Users\Christopher\Documents\maya\projects\Maya_mats\images\MayaMats_0271.jpg" arWidth="960" arHeight="540" duration="0" songTitle="" songArtist="" songAlbum="" songCopyrightUrl="" songArtistUrl="" songAudioFileUrl="" stabilizationMode="0" mediaItemType="2" />
    <MediaItem id="97" filePath="C:\Users\Christopher\Documents\maya\projects\Maya_mats\images\MayaMats_0273.jpg" arWidth="960" arHeight="540" duration="0" songTitle="" songArtist="" songAlbum="" songCopyrightUrl="" songArtistUrl="" songAudioFileUrl="" stabilizationMode="0" mediaItemType="2" />
    <MediaItem id="98" filePath="C:\Users\Christopher\Documents\maya\projects\Maya_mats\images\MayaMats_0275.jpg" arWidth="960" arHeight="540" duration="0" songTitle="" songArtist="" songAlbum="" songCopyrightUrl="" songArtistUrl="" songAudioFileUrl="" stabilizationMode="0" mediaItemType="2" />
    <MediaItem id="99" filePath="C:\Users\Christopher\Documents\maya\projects\Maya_mats\images\MayaMats_0277.jpg" arWidth="960" arHeight="540" duration="0" songTitle="" songArtist="" songAlbum="" songCopyrightUrl="" songArtistUrl="" songAudioFileUrl="" stabilizationMode="0" mediaItemType="2" />
    <MediaItem id="100" filePath="C:\Users\Christopher\Documents\maya\projects\Maya_mats\images\MayaMats_0279.jpg" arWidth="960" arHeight="540" duration="0" songTitle="" songArtist="" songAlbum="" songCopyrightUrl="" songArtistUrl="" songAudioFileUrl="" stabilizationMode="0" mediaItemType="2" />
    <MediaItem id="101" filePath="C:\Users\Christopher\Documents\maya\projects\Maya_mats\images\MayaMats_0281.jpg" arWidth="960" arHeight="540" duration="0" songTitle="" songArtist="" songAlbum="" songCopyrightUrl="" songArtistUrl="" songAudioFileUrl="" stabilizationMode="0" mediaItemType="2" />
    <MediaItem id="102" filePath="C:\Users\Christopher\Documents\maya\projects\Maya_mats\images\MayaMats_0283.jpg" arWidth="960" arHeight="540" duration="0" songTitle="" songArtist="" songAlbum="" songCopyrightUrl="" songArtistUrl="" songAudioFileUrl="" stabilizationMode="0" mediaItemType="2" />
    <MediaItem id="103" filePath="C:\Users\Christopher\Documents\maya\projects\Maya_mats\images\MayaMats_0285.jpg" arWidth="960" arHeight="540" duration="0" songTitle="" songArtist="" songAlbum="" songCopyrightUrl="" songArtistUrl="" songAudioFileUrl="" stabilizationMode="0" mediaItemType="2" />
    <MediaItem id="104" filePath="C:\Users\Christopher\Documents\maya\projects\Maya_mats\images\MayaMats_0287.jpg" arWidth="960" arHeight="540" duration="0" songTitle="" songArtist="" songAlbum="" songCopyrightUrl="" songArtistUrl="" songAudioFileUrl="" stabilizationMode="0" mediaItemType="2" />
    <MediaItem id="105" filePath="C:\Users\Christopher\Documents\maya\projects\Maya_mats\images\MayaMats_0289.jpg" arWidth="960" arHeight="540" duration="0" songTitle="" songArtist="" songAlbum="" songCopyrightUrl="" songArtistUrl="" songAudioFileUrl="" stabilizationMode="0" mediaItemType="2" />
    <MediaItem id="106" filePath="C:\Users\Christopher\Documents\maya\projects\Maya_mats\images\MayaMats_0291.jpg" arWidth="960" arHeight="540" duration="0" songTitle="" songArtist="" songAlbum="" songCopyrightUrl="" songArtistUrl="" songAudioFileUrl="" stabilizationMode="0" mediaItemType="2" />
    <MediaItem id="107" filePath="C:\Users\Christopher\Documents\maya\projects\Maya_mats\images\MayaMats_0293.jpg" arWidth="960" arHeight="540" duration="0" songTitle="" songArtist="" songAlbum="" songCopyrightUrl="" songArtistUrl="" songAudioFileUrl="" stabilizationMode="0" mediaItemType="2" />
    <MediaItem id="108" filePath="C:\Users\Christopher\Documents\maya\projects\Maya_mats\images\MayaMats_0295.jpg" arWidth="960" arHeight="540" duration="0" songTitle="" songArtist="" songAlbum="" songCopyrightUrl="" songArtistUrl="" songAudioFileUrl="" stabilizationMode="0" mediaItemType="2" />
    <MediaItem id="109" filePath="C:\Users\Christopher\Documents\maya\projects\Maya_mats\images\MayaMats_0297.jpg" arWidth="960" arHeight="540" duration="0" songTitle="" songArtist="" songAlbum="" songCopyrightUrl="" songArtistUrl="" songAudioFileUrl="" stabilizationMode="0" mediaItemType="2" />
    <MediaItem id="110" filePath="C:\Users\Christopher\Documents\maya\projects\Maya_mats\images\MayaMats_0299.jpg" arWidth="960" arHeight="540" duration="0" songTitle="" songArtist="" songAlbum="" songCopyrightUrl="" songArtistUrl="" songAudioFileUrl="" stabilizationMode="0" mediaItemType="2" />
    <MediaItem id="111" filePath="C:\Users\Christopher\Documents\maya\projects\Maya_mats\images\MayaMats_0301.jpg" arWidth="960" arHeight="540" duration="0" songTitle="" songArtist="" songAlbum="" songCopyrightUrl="" songArtistUrl="" songAudioFileUrl="" stabilizationMode="0" mediaItemType="2" />
    <MediaItem id="112" filePath="C:\Users\Christopher\Documents\maya\projects\Maya_mats\images\MayaMats_0303.jpg" arWidth="960" arHeight="540" duration="0" songTitle="" songArtist="" songAlbum="" songCopyrightUrl="" songArtistUrl="" songAudioFileUrl="" stabilizationMode="0" mediaItemType="2" />
    <MediaItem id="113" filePath="C:\Users\Christopher\Documents\maya\projects\Maya_mats\images\MayaMats_0305.jpg" arWidth="960" arHeight="540" duration="0" songTitle="" songArtist="" songAlbum="" songCopyrightUrl="" songArtistUrl="" songAudioFileUrl="" stabilizationMode="0" mediaItemType="2" />
    <MediaItem id="114" filePath="C:\Users\Christopher\Documents\maya\projects\Maya_mats\images\MayaMats_0307.jpg" arWidth="960" arHeight="540" duration="0" songTitle="" songArtist="" songAlbum="" songCopyrightUrl="" songArtistUrl="" songAudioFileUrl="" stabilizationMode="0" mediaItemType="2" />
    <MediaItem id="115" filePath="C:\Users\Christopher\Documents\maya\projects\Maya_mats\images\MayaMats_0309.jpg" arWidth="960" arHeight="540" duration="0" songTitle="" songArtist="" songAlbum="" songCopyrightUrl="" songArtistUrl="" songAudioFileUrl="" stabilizationMode="0" mediaItemType="2" />
    <MediaItem id="116" filePath="C:\Users\Christopher\Documents\maya\projects\Maya_mats\images\MayaMats_0311.jpg" arWidth="960" arHeight="540" duration="0" songTitle="" songArtist="" songAlbum="" songCopyrightUrl="" songArtistUrl="" songAudioFileUrl="" stabilizationMode="0" mediaItemType="2" />
    <MediaItem id="117" filePath="C:\Users\Christopher\Documents\maya\projects\Maya_mats\images\MayaMats_0313.jpg" arWidth="960" arHeight="540" duration="0" songTitle="" songArtist="" songAlbum="" songCopyrightUrl="" songArtistUrl="" songAudioFileUrl="" stabilizationMode="0" mediaItemType="2" />
    <MediaItem id="118" filePath="C:\Users\Christopher\Documents\maya\projects\Maya_mats\images\MayaMats_0315.jpg" arWidth="960" arHeight="540" duration="0" songTitle="" songArtist="" songAlbum="" songCopyrightUrl="" songArtistUrl="" songAudioFileUrl="" stabilizationMode="0" mediaItemType="2" />
    <MediaItem id="119" filePath="C:\Users\Christopher\Documents\maya\projects\Maya_mats\images\MayaMats_0317.jpg" arWidth="960" arHeight="540" duration="0" songTitle="" songArtist="" songAlbum="" songCopyrightUrl="" songArtistUrl="" songAudioFileUrl="" stabilizationMode="0" mediaItemType="2" />
    <MediaItem id="120" filePath="C:\Users\Christopher\Documents\maya\projects\Maya_mats\images\MayaMats_0319.jpg" arWidth="960" arHeight="540" duration="0" songTitle="" songArtist="" songAlbum="" songCopyrightUrl="" songArtistUrl="" songAudioFileUrl="" stabilizationMode="0" mediaItemType="2" />
    <MediaItem id="121" filePath="C:\Users\Christopher\Documents\maya\projects\Maya_mats\images\MayaMats_0321.jpg" arWidth="960" arHeight="540" duration="0" songTitle="" songArtist="" songAlbum="" songCopyrightUrl="" songArtistUrl="" songAudioFileUrl="" stabilizationMode="0" mediaItemType="2" />
    <MediaItem id="122" filePath="C:\Users\Christopher\Documents\maya\projects\Maya_mats\images\MayaMats_0323.jpg" arWidth="960" arHeight="540" duration="0" songTitle="" songArtist="" songAlbum="" songCopyrightUrl="" songArtistUrl="" songAudioFileUrl="" stabilizationMode="0" mediaItemType="2" />
    <MediaItem id="123" filePath="C:\Users\Christopher\Documents\maya\projects\Maya_mats\images\MayaMats_0325.jpg" arWidth="960" arHeight="540" duration="0" songTitle="" songArtist="" songAlbum="" songCopyrightUrl="" songArtistUrl="" songAudioFileUrl="" stabilizationMode="0" mediaItemType="2" />
    <MediaItem id="124" filePath="C:\Users\Christopher\Documents\maya\projects\Maya_mats\images\MayaMats_0327.jpg" arWidth="960" arHeight="540" duration="0" songTitle="" songArtist="" songAlbum="" songCopyrightUrl="" songArtistUrl="" songAudioFileUrl="" stabilizationMode="0" mediaItemType="2" />
    <MediaItem id="125" filePath="C:\Users\Christopher\Documents\maya\projects\Maya_mats\images\MayaMats_0329.jpg" arWidth="960" arHeight="540" duration="0" songTitle="" songArtist="" songAlbum="" songCopyrightUrl="" songArtistUrl="" songAudioFileUrl="" stabilizationMode="0" mediaItemType="2" />
    <MediaItem id="126" filePath="C:\Users\Christopher\Documents\maya\projects\Maya_mats\images\MayaMats_0331.jpg" arWidth="960" arHeight="540" duration="0" songTitle="" songArtist="" songAlbum="" songCopyrightUrl="" songArtistUrl="" songAudioFileUrl="" stabilizationMode="0" mediaItemType="2" />
    <MediaItem id="127" filePath="C:\Users\Christopher\Documents\maya\projects\Maya_mats\images\MayaMats_0333.jpg" arWidth="960" arHeight="540" duration="0" songTitle="" songArtist="" songAlbum="" songCopyrightUrl="" songArtistUrl="" songAudioFileUrl="" stabilizationMode="0" mediaItemType="2" />
    <MediaItem id="128" filePath="C:\Users\Christopher\Documents\maya\projects\Maya_mats\images\MayaMats_0335.jpg" arWidth="960" arHeight="540" duration="0" songTitle="" songArtist="" songAlbum="" songCopyrightUrl="" songArtistUrl="" songAudioFileUrl="" stabilizationMode="0" mediaItemType="2" />
    <MediaItem id="129" filePath="C:\Users\Christopher\Documents\maya\projects\Maya_mats\images\MayaMats_0337.jpg" arWidth="960" arHeight="540" duration="0" songTitle="" songArtist="" songAlbum="" songCopyrightUrl="" songArtistUrl="" songAudioFileUrl="" stabilizationMode="0" mediaItemType="2" />
    <MediaItem id="130" filePath="C:\Users\Christopher\Documents\maya\projects\Maya_mats\images\MayaMats_0339.jpg" arWidth="960" arHeight="540" duration="0" songTitle="" songArtist="" songAlbum="" songCopyrightUrl="" songArtistUrl="" songAudioFileUrl="" stabilizationMode="0" mediaItemType="2" />
    <MediaItem id="131" filePath="C:\Users\Christopher\Documents\maya\projects\Maya_mats\images\MayaMats_0341.jpg" arWidth="960" arHeight="540" duration="0" songTitle="" songArtist="" songAlbum="" songCopyrightUrl="" songArtistUrl="" songAudioFileUrl="" stabilizationMode="0" mediaItemType="2" />
    <MediaItem id="132" filePath="C:\Users\Christopher\Documents\maya\projects\Maya_mats\images\MayaMats_0343.jpg" arWidth="960" arHeight="540" duration="0" songTitle="" songArtist="" songAlbum="" songCopyrightUrl="" songArtistUrl="" songAudioFileUrl="" stabilizationMode="0" mediaItemType="2" />
    <MediaItem id="133" filePath="C:\Users\Christopher\Documents\maya\projects\Maya_mats\images\MayaMats_0345.jpg" arWidth="960" arHeight="540" duration="0" songTitle="" songArtist="" songAlbum="" songCopyrightUrl="" songArtistUrl="" songAudioFileUrl="" stabilizationMode="0" mediaItemType="2" />
    <MediaItem id="134" filePath="C:\Users\Christopher\Documents\maya\projects\Maya_mats\images\MayaMats_0347.jpg" arWidth="960" arHeight="540" duration="0" songTitle="" songArtist="" songAlbum="" songCopyrightUrl="" songArtistUrl="" songAudioFileUrl="" stabilizationMode="0" mediaItemType="2" />
    <MediaItem id="135" filePath="C:\Users\Christopher\Documents\maya\projects\Maya_mats\images\MayaMats_0349.jpg" arWidth="960" arHeight="540" duration="0" songTitle="" songArtist="" songAlbum="" songCopyrightUrl="" songArtistUrl="" songAudioFileUrl="" stabilizationMode="0" mediaItemType="2" />
    <MediaItem id="136" filePath="C:\Users\Christopher\Documents\maya\projects\Maya_mats\images\MayaMats_0351.jpg" arWidth="960" arHeight="540" duration="0" songTitle="" songArtist="" songAlbum="" songCopyrightUrl="" songArtistUrl="" songAudioFileUrl="" stabilizationMode="0" mediaItemType="2" />
    <MediaItem id="137" filePath="C:\Users\Christopher\Documents\maya\projects\Maya_mats\images\MayaMats_0353.jpg" arWidth="960" arHeight="540" duration="0" songTitle="" songArtist="" songAlbum="" songCopyrightUrl="" songArtistUrl="" songAudioFileUrl="" stabilizationMode="0" mediaItemType="2" />
    <MediaItem id="138" filePath="C:\Users\Christopher\Documents\maya\projects\Maya_mats\images\MayaMats_0355.jpg" arWidth="960" arHeight="540" duration="0" songTitle="" songArtist="" songAlbum="" songCopyrightUrl="" songArtistUrl="" songAudioFileUrl="" stabilizationMode="0" mediaItemType="2" />
    <MediaItem id="139" filePath="C:\Users\Christopher\Documents\maya\projects\Maya_mats\images\MayaMats_0357.jpg" arWidth="960" arHeight="540" duration="0" songTitle="" songArtist="" songAlbum="" songCopyrightUrl="" songArtistUrl="" songAudioFileUrl="" stabilizationMode="0" mediaItemType="2" />
    <MediaItem id="140" filePath="C:\Users\Christopher\Documents\maya\projects\Maya_mats\images\MayaMats_0359.jpg" arWidth="960" arHeight="540" duration="0" songTitle="" songArtist="" songAlbum="" songCopyrightUrl="" songArtistUrl="" songAudioFileUrl="" stabilizationMode="0" mediaItemType="2" />
    <MediaItem id="141" filePath="C:\Users\Christopher\Documents\maya\projects\Maya_mats\images\MayaMats_0361.jpg" arWidth="960" arHeight="540" duration="0" songTitle="" songArtist="" songAlbum="" songCopyrightUrl="" songArtistUrl="" songAudioFileUrl="" stabilizationMode="0" mediaItemType="2" />
    <MediaItem id="142" filePath="C:\Users\Christopher\Documents\maya\projects\Maya_mats\images\MayaMats_0363.jpg" arWidth="960" arHeight="540" duration="0" songTitle="" songArtist="" songAlbum="" songCopyrightUrl="" songArtistUrl="" songAudioFileUrl="" stabilizationMode="0" mediaItemType="2" />
    <MediaItem id="143" filePath="C:\Users\Christopher\Documents\maya\projects\Maya_mats\images\MayaMats_0365.jpg" arWidth="960" arHeight="540" duration="0" songTitle="" songArtist="" songAlbum="" songCopyrightUrl="" songArtistUrl="" songAudioFileUrl="" stabilizationMode="0" mediaItemType="2" />
    <MediaItem id="144" filePath="C:\Users\Christopher\Documents\maya\projects\Maya_mats\images\MayaMats_0367.jpg" arWidth="960" arHeight="540" duration="0" songTitle="" songArtist="" songAlbum="" songCopyrightUrl="" songArtistUrl="" songAudioFileUrl="" stabilizationMode="0" mediaItemType="2" />
    <MediaItem id="145" filePath="C:\Users\Christopher\Documents\maya\projects\Maya_mats\images\MayaMats_0369.jpg" arWidth="960" arHeight="540" duration="0" songTitle="" songArtist="" songAlbum="" songCopyrightUrl="" songArtistUrl="" songAudioFileUrl="" stabilizationMode="0" mediaItemType="2" />
    <MediaItem id="146" filePath="C:\Users\Christopher\Documents\maya\projects\Maya_mats\images\MayaMats_0371.jpg" arWidth="960" arHeight="540" duration="0" songTitle="" songArtist="" songAlbum="" songCopyrightUrl="" songArtistUrl="" songAudioFileUrl="" stabilizationMode="0" mediaItemType="2" />
    <MediaItem id="147" filePath="C:\Users\Christopher\Documents\maya\projects\Maya_mats\images\MayaMats_0373.jpg" arWidth="960" arHeight="540" duration="0" songTitle="" songArtist="" songAlbum="" songCopyrightUrl="" songArtistUrl="" songAudioFileUrl="" stabilizationMode="0" mediaItemType="2" />
    <MediaItem id="148" filePath="C:\Users\Christopher\Documents\maya\projects\Maya_mats\images\MayaMats_0375.jpg" arWidth="960" arHeight="540" duration="0" songTitle="" songArtist="" songAlbum="" songCopyrightUrl="" songArtistUrl="" songAudioFileUrl="" stabilizationMode="0" mediaItemType="2" />
    <MediaItem id="149" filePath="C:\Users\Christopher\Documents\maya\projects\Maya_mats\images\MayaMats_0377.jpg" arWidth="960" arHeight="540" duration="0" songTitle="" songArtist="" songAlbum="" songCopyrightUrl="" songArtistUrl="" songAudioFileUrl="" stabilizationMode="0" mediaItemType="2" />
    <MediaItem id="150" filePath="C:\Users\Christopher\Documents\maya\projects\Maya_mats\images\MayaMats_0379.jpg" arWidth="960" arHeight="540" duration="0" songTitle="" songArtist="" songAlbum="" songCopyrightUrl="" songArtistUrl="" songAudioFileUrl="" stabilizationMode="0" mediaItemType="2" />
    <MediaItem id="151" filePath="C:\Users\Christopher\Documents\maya\projects\Maya_mats\images\MayaMats_0381.jpg" arWidth="960" arHeight="540" duration="0" songTitle="" songArtist="" songAlbum="" songCopyrightUrl="" songArtistUrl="" songAudioFileUrl="" stabilizationMode="0" mediaItemType="2" />
    <MediaItem id="152" filePath="C:\Users\Christopher\Documents\maya\projects\Maya_mats\images\MayaMats_0383.jpg" arWidth="960" arHeight="540" duration="0" songTitle="" songArtist="" songAlbum="" songCopyrightUrl="" songArtistUrl="" songAudioFileUrl="" stabilizationMode="0" mediaItemType="2" />
    <MediaItem id="153" filePath="C:\Users\Christopher\Documents\maya\projects\Maya_mats\images\MayaMats_0385.jpg" arWidth="960" arHeight="540" duration="0" songTitle="" songArtist="" songAlbum="" songCopyrightUrl="" songArtistUrl="" songAudioFileUrl="" stabilizationMode="0" mediaItemType="2" />
    <MediaItem id="154" filePath="C:\Users\Christopher\Documents\maya\projects\Maya_mats\images\MayaMats_0387.jpg" arWidth="960" arHeight="540" duration="0" songTitle="" songArtist="" songAlbum="" songCopyrightUrl="" songArtistUrl="" songAudioFileUrl="" stabilizationMode="0" mediaItemType="2" />
    <MediaItem id="155" filePath="C:\Users\Christopher\Documents\maya\projects\Maya_mats\images\MayaMats_0389.jpg" arWidth="960" arHeight="540" duration="0" songTitle="" songArtist="" songAlbum="" songCopyrightUrl="" songArtistUrl="" songAudioFileUrl="" stabilizationMode="0" mediaItemType="2" />
    <MediaItem id="156" filePath="C:\Users\Christopher\Documents\maya\projects\Maya_mats\images\MayaMats_0391.jpg" arWidth="960" arHeight="540" duration="0" songTitle="" songArtist="" songAlbum="" songCopyrightUrl="" songArtistUrl="" songAudioFileUrl="" stabilizationMode="0" mediaItemType="2" />
    <MediaItem id="157" filePath="C:\Users\Christopher\Documents\maya\projects\Maya_mats\images\MayaMats_0393.jpg" arWidth="960" arHeight="540" duration="0" songTitle="" songArtist="" songAlbum="" songCopyrightUrl="" songArtistUrl="" songAudioFileUrl="" stabilizationMode="0" mediaItemType="2" />
    <MediaItem id="158" filePath="C:\Users\Christopher\Documents\maya\projects\Maya_mats\images\MayaMats_0395.jpg" arWidth="960" arHeight="540" duration="0" songTitle="" songArtist="" songAlbum="" songCopyrightUrl="" songArtistUrl="" songAudioFileUrl="" stabilizationMode="0" mediaItemType="2" />
    <MediaItem id="159" filePath="C:\Users\Christopher\Documents\maya\projects\Maya_mats\images\MayaMats_0397.jpg" arWidth="960" arHeight="540" duration="0" songTitle="" songArtist="" songAlbum="" songCopyrightUrl="" songArtistUrl="" songAudioFileUrl="" stabilizationMode="0" mediaItemType="2" />
    <MediaItem id="160" filePath="C:\Users\Christopher\Documents\maya\projects\Maya_mats\images\MayaMats_0399.jpg" arWidth="960" arHeight="540" duration="0" songTitle="" songArtist="" songAlbum="" songCopyrightUrl="" songArtistUrl="" songAudioFileUrl="" stabilizationMode="0" mediaItemType="2" />
    <MediaItem id="161" filePath="C:\Users\Christopher\Documents\maya\projects\Maya_mats\images\MayaMats_0401.jpg" arWidth="960" arHeight="540" duration="0" songTitle="" songArtist="" songAlbum="" songCopyrightUrl="" songArtistUrl="" songAudioFileUrl="" stabilizationMode="0" mediaItemType="2" />
    <MediaItem id="162" filePath="C:\Users\Christopher\Documents\maya\projects\Maya_mats\images\MayaMats_0403.jpg" arWidth="960" arHeight="540" duration="0" songTitle="" songArtist="" songAlbum="" songCopyrightUrl="" songArtistUrl="" songAudioFileUrl="" stabilizationMode="0" mediaItemType="2" />
  </MediaItems>
  <Extents>
    <ImageClip extentID="326" gapBefore="0" mediaItemID="72" duration="0.070000000000000007">
      <Effects />
      <Transitions />
      <BoundProperties>
        <BoundPropertyInt Name="rotateStepNinety" Value="0" />
      </BoundProperties>
    </ImageClip>
    <ImageClip extentID="327" gapBefore="0" mediaItemID="73" duration="0.070000000000000007">
      <Effects />
      <Transitions />
      <BoundProperties>
        <BoundPropertyInt Name="rotateStepNinety" Value="0" />
      </BoundProperties>
    </ImageClip>
    <ImageClip extentID="328" gapBefore="0" mediaItemID="74" duration="0.070000000000000007">
      <Effects />
      <Transitions />
      <BoundProperties>
        <BoundPropertyInt Name="rotateStepNinety" Value="0" />
      </BoundProperties>
    </ImageClip>
    <ImageClip extentID="329" gapBefore="0" mediaItemID="75" duration="0.070000000000000007">
      <Effects />
      <Transitions />
      <BoundProperties>
        <BoundPropertyInt Name="rotateStepNinety" Value="0" />
      </BoundProperties>
    </ImageClip>
    <ImageClip extentID="330" gapBefore="0" mediaItemID="76" duration="0.070000000000000007">
      <Effects />
      <Transitions />
      <BoundProperties>
        <BoundPropertyInt Name="rotateStepNinety" Value="0" />
      </BoundProperties>
    </ImageClip>
    <ImageClip extentID="331" gapBefore="0" mediaItemID="77" duration="0.070000000000000007">
      <Effects />
      <Transitions />
      <BoundProperties>
        <BoundPropertyInt Name="rotateStepNinety" Value="0" />
      </BoundProperties>
    </ImageClip>
    <ImageClip extentID="332" gapBefore="0" mediaItemID="78" duration="0.070000000000000007">
      <Effects />
      <Transitions />
      <BoundProperties>
        <BoundPropertyInt Name="rotateStepNinety" Value="0" />
      </BoundProperties>
    </ImageClip>
    <ImageClip extentID="333" gapBefore="0" mediaItemID="79" duration="0.070000000000000007">
      <Effects />
      <Transitions />
      <BoundProperties>
        <BoundPropertyInt Name="rotateStepNinety" Value="0" />
      </BoundProperties>
    </ImageClip>
    <ImageClip extentID="334" gapBefore="0" mediaItemID="80" duration="0.5">
      <Effects />
      <Transitions />
      <BoundProperties>
        <BoundPropertyInt Name="rotateStepNinety" Value="0" />
      </BoundProperties>
    </ImageClip>
    <ImageClip extentID="335" gapBefore="0" mediaItemID="81" duration="0.070000000000000007">
      <Effects />
      <Transitions />
      <BoundProperties>
        <BoundPropertyInt Name="rotateStepNinety" Value="0" />
      </BoundProperties>
    </ImageClip>
    <ImageClip extentID="336" gapBefore="0" mediaItemID="82" duration="0.070000000000000007">
      <Effects />
      <Transitions />
      <BoundProperties>
        <BoundPropertyInt Name="rotateStepNinety" Value="0" />
      </BoundProperties>
    </ImageClip>
    <ImageClip extentID="337" gapBefore="0" mediaItemID="83" duration="0.070000000000000007">
      <Effects />
      <Transitions />
      <BoundProperties>
        <BoundPropertyInt Name="rotateStepNinety" Value="0" />
      </BoundProperties>
    </ImageClip>
    <ImageClip extentID="338" gapBefore="0" mediaItemID="84" duration="0.070000000000000007">
      <Effects />
      <Transitions />
      <BoundProperties>
        <BoundPropertyInt Name="rotateStepNinety" Value="0" />
      </BoundProperties>
    </ImageClip>
    <ImageClip extentID="339" gapBefore="0" mediaItemID="85" duration="0.070000000000000007">
      <Effects />
      <Transitions />
      <BoundProperties>
        <BoundPropertyInt Name="rotateStepNinety" Value="0" />
      </BoundProperties>
    </ImageClip>
    <ImageClip extentID="340" gapBefore="0" mediaItemID="86" duration="0.070000000000000007">
      <Effects />
      <Transitions />
      <BoundProperties>
        <BoundPropertyInt Name="rotateStepNinety" Value="0" />
      </BoundProperties>
    </ImageClip>
    <ImageClip extentID="341" gapBefore="0" mediaItemID="87" duration="0.070000000000000007">
      <Effects />
      <Transitions />
      <BoundProperties>
        <BoundPropertyInt Name="rotateStepNinety" Value="0" />
      </BoundProperties>
    </ImageClip>
    <ImageClip extentID="342" gapBefore="0" mediaItemID="88" duration="0.070000000000000007">
      <Effects />
      <Transitions />
      <BoundProperties>
        <BoundPropertyInt Name="rotateStepNinety" Value="0" />
      </BoundProperties>
    </ImageClip>
    <ImageClip extentID="343" gapBefore="0" mediaItemID="89" duration="0.070000000000000007">
      <Effects />
      <Transitions />
      <BoundProperties>
        <BoundPropertyInt Name="rotateStepNinety" Value="0" />
      </BoundProperties>
    </ImageClip>
    <ImageClip extentID="344" gapBefore="0" mediaItemID="90" duration="0.070000000000000007">
      <Effects />
      <Transitions />
      <BoundProperties>
        <BoundPropertyInt Name="rotateStepNinety" Value="0" />
      </BoundProperties>
    </ImageClip>
    <ImageClip extentID="345" gapBefore="0" mediaItemID="91" duration="0.070000000000000007">
      <Effects />
      <Transitions />
      <BoundProperties>
        <BoundPropertyInt Name="rotateStepNinety" Value="0" />
      </BoundProperties>
    </ImageClip>
    <ImageClip extentID="346" gapBefore="0" mediaItemID="92" duration="0.070000000000000007">
      <Effects />
      <Transitions />
      <BoundProperties>
        <BoundPropertyInt Name="rotateStepNinety" Value="0" />
      </BoundProperties>
    </ImageClip>
    <ImageClip extentID="347" gapBefore="0" mediaItemID="93" duration="0.070000000000000007">
      <Effects />
      <Transitions />
      <BoundProperties>
        <BoundPropertyInt Name="rotateStepNinety" Value="0" />
      </BoundProperties>
    </ImageClip>
    <ImageClip extentID="348" gapBefore="0" mediaItemID="94" duration="0.070000000000000007">
      <Effects />
      <Transitions />
      <BoundProperties>
        <BoundPropertyInt Name="rotateStepNinety" Value="0" />
      </BoundProperties>
    </ImageClip>
    <ImageClip extentID="349" gapBefore="0" mediaItemID="95" duration="0.070000000000000007">
      <Effects />
      <Transitions />
      <BoundProperties>
        <BoundPropertyInt Name="rotateStepNinety" Value="0" />
      </BoundProperties>
    </ImageClip>
    <ImageClip extentID="350" gapBefore="0" mediaItemID="96" duration="0.070000000000000007">
      <Effects />
      <Transitions />
      <BoundProperties>
        <BoundPropertyInt Name="rotateStepNinety" Value="0" />
      </BoundProperties>
    </ImageClip>
    <ImageClip extentID="351" gapBefore="0" mediaItemID="97" duration="0.070000000000000007">
      <Effects />
      <Transitions />
      <BoundProperties>
        <BoundPropertyInt Name="rotateStepNinety" Value="0" />
      </BoundProperties>
    </ImageClip>
    <ImageClip extentID="352" gapBefore="0" mediaItemID="98" duration="0.070000000000000007">
      <Effects />
      <Transitions />
      <BoundProperties>
        <BoundPropertyInt Name="rotateStepNinety" Value="0" />
      </BoundProperties>
    </ImageClip>
    <ImageClip extentID="353" gapBefore="0" mediaItemID="99" duration="0.070000000000000007">
      <Effects />
      <Transitions />
      <BoundProperties>
        <BoundPropertyInt Name="rotateStepNinety" Value="0" />
      </BoundProperties>
    </ImageClip>
    <ImageClip extentID="354" gapBefore="0" mediaItemID="100" duration="0.070000000000000007">
      <Effects />
      <Transitions />
      <BoundProperties>
        <BoundPropertyInt Name="rotateStepNinety" Value="0" />
      </BoundProperties>
    </ImageClip>
    <ImageClip extentID="355" gapBefore="0" mediaItemID="101" duration="0.070000000000000007">
      <Effects />
      <Transitions />
      <BoundProperties>
        <BoundPropertyInt Name="rotateStepNinety" Value="0" />
      </BoundProperties>
    </ImageClip>
    <ImageClip extentID="356" gapBefore="0" mediaItemID="102" duration="0.070000000000000007">
      <Effects />
      <Transitions />
      <BoundProperties>
        <BoundPropertyInt Name="rotateStepNinety" Value="0" />
      </BoundProperties>
    </ImageClip>
    <ImageClip extentID="357" gapBefore="0" mediaItemID="103" duration="0.070000000000000007">
      <Effects />
      <Transitions />
      <BoundProperties>
        <BoundPropertyInt Name="rotateStepNinety" Value="0" />
      </BoundProperties>
    </ImageClip>
    <ImageClip extentID="358" gapBefore="0" mediaItemID="104" duration="0.070000000000000007">
      <Effects />
      <Transitions />
      <BoundProperties>
        <BoundPropertyInt Name="rotateStepNinety" Value="0" />
      </BoundProperties>
    </ImageClip>
    <ImageClip extentID="359" gapBefore="0" mediaItemID="105" duration="0.070000000000000007">
      <Effects />
      <Transitions />
      <BoundProperties>
        <BoundPropertyInt Name="rotateStepNinety" Value="0" />
      </BoundProperties>
    </ImageClip>
    <ImageClip extentID="360" gapBefore="0" mediaItemID="106" duration="0.070000000000000007">
      <Effects />
      <Transitions />
      <BoundProperties>
        <BoundPropertyInt Name="rotateStepNinety" Value="0" />
      </BoundProperties>
    </ImageClip>
    <ImageClip extentID="361" gapBefore="0" mediaItemID="107" duration="0.070000000000000007">
      <Effects />
      <Transitions />
      <BoundProperties>
        <BoundPropertyInt Name="rotateStepNinety" Value="0" />
      </BoundProperties>
    </ImageClip>
    <ImageClip extentID="362" gapBefore="0" mediaItemID="108" duration="0.070000000000000007">
      <Effects />
      <Transitions />
      <BoundProperties>
        <BoundPropertyInt Name="rotateStepNinety" Value="0" />
      </BoundProperties>
    </ImageClip>
    <ImageClip extentID="363" gapBefore="0" mediaItemID="109" duration="0.070000000000000007">
      <Effects />
      <Transitions />
      <BoundProperties>
        <BoundPropertyInt Name="rotateStepNinety" Value="0" />
      </BoundProperties>
    </ImageClip>
    <ImageClip extentID="364" gapBefore="0" mediaItemID="110" duration="0.070000000000000007">
      <Effects />
      <Transitions />
      <BoundProperties>
        <BoundPropertyInt Name="rotateStepNinety" Value="0" />
      </BoundProperties>
    </ImageClip>
    <ImageClip extentID="365" gapBefore="0" mediaItemID="111" duration="0.070000000000000007">
      <Effects />
      <Transitions />
      <BoundProperties>
        <BoundPropertyInt Name="rotateStepNinety" Value="0" />
      </BoundProperties>
    </ImageClip>
    <ImageClip extentID="366" gapBefore="0" mediaItemID="112" duration="0.070000000000000007">
      <Effects />
      <Transitions />
      <BoundProperties>
        <BoundPropertyInt Name="rotateStepNinety" Value="0" />
      </BoundProperties>
    </ImageClip>
    <ImageClip extentID="367" gapBefore="0" mediaItemID="113" duration="0.070000000000000007">
      <Effects />
      <Transitions />
      <BoundProperties>
        <BoundPropertyInt Name="rotateStepNinety" Value="0" />
      </BoundProperties>
    </ImageClip>
    <ImageClip extentID="368" gapBefore="0" mediaItemID="114" duration="0.070000000000000007">
      <Effects />
      <Transitions />
      <BoundProperties>
        <BoundPropertyInt Name="rotateStepNinety" Value="0" />
      </BoundProperties>
    </ImageClip>
    <ImageClip extentID="369" gapBefore="0" mediaItemID="115" duration="0.070000000000000007">
      <Effects />
      <Transitions />
      <BoundProperties>
        <BoundPropertyInt Name="rotateStepNinety" Value="0" />
      </BoundProperties>
    </ImageClip>
    <ImageClip extentID="370" gapBefore="0" mediaItemID="116" duration="0.070000000000000007">
      <Effects />
      <Transitions />
      <BoundProperties>
        <BoundPropertyInt Name="rotateStepNinety" Value="0" />
      </BoundProperties>
    </ImageClip>
    <ImageClip extentID="371" gapBefore="0" mediaItemID="117" duration="0.070000000000000007">
      <Effects />
      <Transitions />
      <BoundProperties>
        <BoundPropertyInt Name="rotateStepNinety" Value="0" />
      </BoundProperties>
    </ImageClip>
    <ImageClip extentID="372" gapBefore="0" mediaItemID="118" duration="0.070000000000000007">
      <Effects />
      <Transitions />
      <BoundProperties>
        <BoundPropertyInt Name="rotateStepNinety" Value="0" />
      </BoundProperties>
    </ImageClip>
    <ImageClip extentID="373" gapBefore="0" mediaItemID="119" duration="0.070000000000000007">
      <Effects />
      <Transitions />
      <BoundProperties>
        <BoundPropertyInt Name="rotateStepNinety" Value="0" />
      </BoundProperties>
    </ImageClip>
    <ImageClip extentID="374" gapBefore="0" mediaItemID="120" duration="0.070000000000000007">
      <Effects />
      <Transitions />
      <BoundProperties>
        <BoundPropertyInt Name="rotateStepNinety" Value="0" />
      </BoundProperties>
    </ImageClip>
    <ImageClip extentID="375" gapBefore="0" mediaItemID="121" duration="0.070000000000000007">
      <Effects />
      <Transitions />
      <BoundProperties>
        <BoundPropertyInt Name="rotateStepNinety" Value="0" />
      </BoundProperties>
    </ImageClip>
    <ImageClip extentID="376" gapBefore="0" mediaItemID="122" duration="0.070000000000000007">
      <Effects />
      <Transitions />
      <BoundProperties>
        <BoundPropertyInt Name="rotateStepNinety" Value="0" />
      </BoundProperties>
    </ImageClip>
    <ImageClip extentID="377" gapBefore="0" mediaItemID="123" duration="0.070000000000000007">
      <Effects />
      <Transitions />
      <BoundProperties>
        <BoundPropertyInt Name="rotateStepNinety" Value="0" />
      </BoundProperties>
    </ImageClip>
    <ImageClip extentID="378" gapBefore="0" mediaItemID="124" duration="0.070000000000000007">
      <Effects />
      <Transitions />
      <BoundProperties>
        <BoundPropertyInt Name="rotateStepNinety" Value="0" />
      </BoundProperties>
    </ImageClip>
    <ImageClip extentID="215" gapBefore="0" mediaItemID="171" duration="1">
      <Effects>
        <ShaderEffect effectTemplateID="BrightnessEffectTemplate">
          <BoundProperties>
            <BoundPropertyFloat Name="brightness" Value="0.8932652473449707" />
          </BoundProperties>
        </ShaderEffect>
        <ShaderEffect effectTemplateID="BlackAndWhiteYellowEffectTemplate">
          <BoundProperties />
        </ShaderEffect>
      </Effects>
      <Transitions>
        <ShapeEffect effectTemplateID="PixelateTransitionTemplate" duration="1.5">
          <BoundProperties />
        </ShapeEffect>
      </Transitions>
      <BoundProperties>
        <BoundPropertyInt Name="rotateStepNinety" Value="0" />
      </BoundProperties>
    </ImageClip>
    <ImageClip extentID="379" gapBefore="0" mediaItemID="125" duration="0.070000000000000007">
      <Effects />
      <Transitions />
      <BoundProperties>
        <BoundPropertyInt Name="rotateStepNinety" Value="0" />
      </BoundProperties>
    </ImageClip>
    <ImageClip extentID="216" gapBefore="0" mediaItemID="172" duration="0.070000000000000007">
      <Effects />
      <Transitions>
        <ShaderEffect effectTemplateID="ShatterUpLeftTransitionTemplate" duration="2">
          <BoundProperties />
        </ShaderEffect>
      </Transitions>
      <BoundProperties>
        <BoundPropertyInt Name="rotateStepNinety" Value="0" />
      </BoundProperties>
    </ImageClip>
    <ImageClip extentID="380" gapBefore="0" mediaItemID="126" duration="0.070000000000000007">
      <Effects />
      <Transitions />
      <BoundProperties>
        <BoundPropertyInt Name="rotateStepNinety" Value="0" />
      </BoundProperties>
    </ImageClip>
    <ImageClip extentID="217" gapBefore="0" mediaItemID="173" duration="0.070000000000000007">
      <Effects />
      <Transitions />
      <BoundProperties>
        <BoundPropertyInt Name="rotateStepNinety" Value="0" />
      </BoundProperties>
    </ImageClip>
    <ImageClip extentID="381" gapBefore="0" mediaItemID="127" duration="0.070000000000000007">
      <Effects />
      <Transitions />
      <BoundProperties>
        <BoundPropertyInt Name="rotateStepNinety" Value="0" />
      </BoundProperties>
    </ImageClip>
    <ImageClip extentID="218" gapBefore="0" mediaItemID="174" duration="0.070000000000000007">
      <Effects />
      <Transitions />
      <BoundProperties>
        <BoundPropertyInt Name="rotateStepNinety" Value="0" />
      </BoundProperties>
    </ImageClip>
    <ImageClip extentID="382" gapBefore="0" mediaItemID="128" duration="0.070000000000000007">
      <Effects />
      <Transitions />
      <BoundProperties>
        <BoundPropertyInt Name="rotateStepNinety" Value="0" />
      </BoundProperties>
    </ImageClip>
    <ImageClip extentID="219" gapBefore="0" mediaItemID="175" duration="0.070000000000000007">
      <Effects />
      <Transitions />
      <BoundProperties>
        <BoundPropertyInt Name="rotateStepNinety" Value="0" />
      </BoundProperties>
    </ImageClip>
    <ImageClip extentID="383" gapBefore="0" mediaItemID="129" duration="0.070000000000000007">
      <Effects />
      <Transitions />
      <BoundProperties>
        <BoundPropertyInt Name="rotateStepNinety" Value="0" />
      </BoundProperties>
    </ImageClip>
    <ImageClip extentID="220" gapBefore="0" mediaItemID="176" duration="0.070000000000000007">
      <Effects />
      <Transitions />
      <BoundProperties>
        <BoundPropertyInt Name="rotateStepNinety" Value="0" />
      </BoundProperties>
    </ImageClip>
    <ImageClip extentID="384" gapBefore="0" mediaItemID="130" duration="0.070000000000000007">
      <Effects />
      <Transitions />
      <BoundProperties>
        <BoundPropertyInt Name="rotateStepNinety" Value="0" />
      </BoundProperties>
    </ImageClip>
    <ImageClip extentID="221" gapBefore="0" mediaItemID="177" duration="0.070000000000000007">
      <Effects />
      <Transitions />
      <BoundProperties>
        <BoundPropertyInt Name="rotateStepNinety" Value="0" />
      </BoundProperties>
    </ImageClip>
    <ImageClip extentID="385" gapBefore="0" mediaItemID="131" duration="0.070000000000000007">
      <Effects />
      <Transitions />
      <BoundProperties>
        <BoundPropertyInt Name="rotateStepNinety" Value="0" />
      </BoundProperties>
    </ImageClip>
    <ImageClip extentID="222" gapBefore="0" mediaItemID="178" duration="0.070000000000000007">
      <Effects />
      <Transitions />
      <BoundProperties>
        <BoundPropertyInt Name="rotateStepNinety" Value="0" />
      </BoundProperties>
    </ImageClip>
    <ImageClip extentID="386" gapBefore="0" mediaItemID="132" duration="0.070000000000000007">
      <Effects />
      <Transitions />
      <BoundProperties>
        <BoundPropertyInt Name="rotateStepNinety" Value="0" />
      </BoundProperties>
    </ImageClip>
    <ImageClip extentID="223" gapBefore="0" mediaItemID="179" duration="0.070000000000000007">
      <Effects />
      <Transitions />
      <BoundProperties>
        <BoundPropertyInt Name="rotateStepNinety" Value="0" />
      </BoundProperties>
    </ImageClip>
    <ImageClip extentID="387" gapBefore="0" mediaItemID="133" duration="0.070000000000000007">
      <Effects />
      <Transitions />
      <BoundProperties>
        <BoundPropertyInt Name="rotateStepNinety" Value="0" />
      </BoundProperties>
    </ImageClip>
    <ImageClip extentID="224" gapBefore="0" mediaItemID="180" duration="0.070000000000000007">
      <Effects />
      <Transitions />
      <BoundProperties>
        <BoundPropertyInt Name="rotateStepNinety" Value="0" />
      </BoundProperties>
    </ImageClip>
    <ImageClip extentID="388" gapBefore="0" mediaItemID="134" duration="0.070000000000000007">
      <Effects />
      <Transitions />
      <BoundProperties>
        <BoundPropertyInt Name="rotateStepNinety" Value="0" />
      </BoundProperties>
    </ImageClip>
    <ImageClip extentID="225" gapBefore="0" mediaItemID="181" duration="0.070000000000000007">
      <Effects />
      <Transitions />
      <BoundProperties>
        <BoundPropertyInt Name="rotateStepNinety" Value="0" />
      </BoundProperties>
    </ImageClip>
    <ImageClip extentID="389" gapBefore="0" mediaItemID="135" duration="0.070000000000000007">
      <Effects />
      <Transitions />
      <BoundProperties>
        <BoundPropertyInt Name="rotateStepNinety" Value="0" />
      </BoundProperties>
    </ImageClip>
    <ImageClip extentID="226" gapBefore="0" mediaItemID="182" duration="0.070000000000000007">
      <Effects />
      <Transitions />
      <BoundProperties>
        <BoundPropertyInt Name="rotateStepNinety" Value="0" />
      </BoundProperties>
    </ImageClip>
    <ImageClip extentID="390" gapBefore="0" mediaItemID="136" duration="0.070000000000000007">
      <Effects />
      <Transitions />
      <BoundProperties>
        <BoundPropertyInt Name="rotateStepNinety" Value="0" />
      </BoundProperties>
    </ImageClip>
    <ImageClip extentID="227" gapBefore="0" mediaItemID="183" duration="0.070000000000000007">
      <Effects />
      <Transitions />
      <BoundProperties>
        <BoundPropertyInt Name="rotateStepNinety" Value="0" />
      </BoundProperties>
    </ImageClip>
    <ImageClip extentID="391" gapBefore="0" mediaItemID="137" duration="0.070000000000000007">
      <Effects />
      <Transitions />
      <BoundProperties>
        <BoundPropertyInt Name="rotateStepNinety" Value="0" />
      </BoundProperties>
    </ImageClip>
    <ImageClip extentID="228" gapBefore="0" mediaItemID="184" duration="0.070000000000000007">
      <Effects />
      <Transitions />
      <BoundProperties>
        <BoundPropertyInt Name="rotateStepNinety" Value="0" />
      </BoundProperties>
    </ImageClip>
    <ImageClip extentID="392" gapBefore="0" mediaItemID="138" duration="0.070000000000000007">
      <Effects />
      <Transitions />
      <BoundProperties>
        <BoundPropertyInt Name="rotateStepNinety" Value="0" />
      </BoundProperties>
    </ImageClip>
    <ImageClip extentID="229" gapBefore="0" mediaItemID="185" duration="0.070000000000000007">
      <Effects />
      <Transitions />
      <BoundProperties>
        <BoundPropertyInt Name="rotateStepNinety" Value="0" />
      </BoundProperties>
    </ImageClip>
    <ImageClip extentID="393" gapBefore="0" mediaItemID="139" duration="0.070000000000000007">
      <Effects />
      <Transitions />
      <BoundProperties>
        <BoundPropertyInt Name="rotateStepNinety" Value="0" />
      </BoundProperties>
    </ImageClip>
    <ImageClip extentID="230" gapBefore="0" mediaItemID="186" duration="0.070000000000000007">
      <Effects />
      <Transitions />
      <BoundProperties>
        <BoundPropertyInt Name="rotateStepNinety" Value="0" />
      </BoundProperties>
    </ImageClip>
    <ImageClip extentID="394" gapBefore="0" mediaItemID="140" duration="0.070000000000000007">
      <Effects />
      <Transitions />
      <BoundProperties>
        <BoundPropertyInt Name="rotateStepNinety" Value="0" />
      </BoundProperties>
    </ImageClip>
    <ImageClip extentID="231" gapBefore="0" mediaItemID="187" duration="0.070000000000000007">
      <Effects />
      <Transitions />
      <BoundProperties>
        <BoundPropertyInt Name="rotateStepNinety" Value="0" />
      </BoundProperties>
    </ImageClip>
    <ImageClip extentID="395" gapBefore="0" mediaItemID="141" duration="0.070000000000000007">
      <Effects />
      <Transitions />
      <BoundProperties>
        <BoundPropertyInt Name="rotateStepNinety" Value="0" />
      </BoundProperties>
    </ImageClip>
    <ImageClip extentID="232" gapBefore="0" mediaItemID="188" duration="0.070000000000000007">
      <Effects />
      <Transitions />
      <BoundProperties>
        <BoundPropertyInt Name="rotateStepNinety" Value="0" />
      </BoundProperties>
    </ImageClip>
    <ImageClip extentID="396" gapBefore="0" mediaItemID="142" duration="0.070000000000000007">
      <Effects />
      <Transitions />
      <BoundProperties>
        <BoundPropertyInt Name="rotateStepNinety" Value="0" />
      </BoundProperties>
    </ImageClip>
    <ImageClip extentID="233" gapBefore="0" mediaItemID="189" duration="0.070000000000000007">
      <Effects />
      <Transitions />
      <BoundProperties>
        <BoundPropertyInt Name="rotateStepNinety" Value="0" />
      </BoundProperties>
    </ImageClip>
    <ImageClip extentID="397" gapBefore="0" mediaItemID="143" duration="0.070000000000000007">
      <Effects />
      <Transitions />
      <BoundProperties>
        <BoundPropertyInt Name="rotateStepNinety" Value="0" />
      </BoundProperties>
    </ImageClip>
    <ImageClip extentID="234" gapBefore="0" mediaItemID="190" duration="0.070000000000000007">
      <Effects />
      <Transitions />
      <BoundProperties>
        <BoundPropertyInt Name="rotateStepNinety" Value="0" />
      </BoundProperties>
    </ImageClip>
    <ImageClip extentID="398" gapBefore="0" mediaItemID="144" duration="0.070000000000000007">
      <Effects />
      <Transitions />
      <BoundProperties>
        <BoundPropertyInt Name="rotateStepNinety" Value="0" />
      </BoundProperties>
    </ImageClip>
    <ImageClip extentID="235" gapBefore="0" mediaItemID="191" duration="0.070000000000000007">
      <Effects />
      <Transitions />
      <BoundProperties>
        <BoundPropertyInt Name="rotateStepNinety" Value="0" />
      </BoundProperties>
    </ImageClip>
    <ImageClip extentID="399" gapBefore="0" mediaItemID="145" duration="0.070000000000000007">
      <Effects />
      <Transitions />
      <BoundProperties>
        <BoundPropertyInt Name="rotateStepNinety" Value="0" />
      </BoundProperties>
    </ImageClip>
    <ImageClip extentID="236" gapBefore="0" mediaItemID="192" duration="0.070000000000000007">
      <Effects />
      <Transitions />
      <BoundProperties>
        <BoundPropertyInt Name="rotateStepNinety" Value="0" />
      </BoundProperties>
    </ImageClip>
    <ImageClip extentID="400" gapBefore="0" mediaItemID="146" duration="0.070000000000000007">
      <Effects />
      <Transitions />
      <BoundProperties>
        <BoundPropertyInt Name="rotateStepNinety" Value="0" />
      </BoundProperties>
    </ImageClip>
    <ImageClip extentID="237" gapBefore="0" mediaItemID="193" duration="0.070000000000000007">
      <Effects />
      <Transitions />
      <BoundProperties>
        <BoundPropertyInt Name="rotateStepNinety" Value="0" />
      </BoundProperties>
    </ImageClip>
    <ImageClip extentID="401" gapBefore="0" mediaItemID="147" duration="0.070000000000000007">
      <Effects />
      <Transitions />
      <BoundProperties>
        <BoundPropertyInt Name="rotateStepNinety" Value="0" />
      </BoundProperties>
    </ImageClip>
    <ImageClip extentID="238" gapBefore="0" mediaItemID="194" duration="0.070000000000000007">
      <Effects />
      <Transitions />
      <BoundProperties>
        <BoundPropertyInt Name="rotateStepNinety" Value="0" />
      </BoundProperties>
    </ImageClip>
    <ImageClip extentID="402" gapBefore="0" mediaItemID="148" duration="0.070000000000000007">
      <Effects />
      <Transitions />
      <BoundProperties>
        <BoundPropertyInt Name="rotateStepNinety" Value="0" />
      </BoundProperties>
    </ImageClip>
    <ImageClip extentID="239" gapBefore="0" mediaItemID="195" duration="0.070000000000000007">
      <Effects />
      <Transitions />
      <BoundProperties>
        <BoundPropertyInt Name="rotateStepNinety" Value="0" />
      </BoundProperties>
    </ImageClip>
    <ImageClip extentID="403" gapBefore="0" mediaItemID="149" duration="0.070000000000000007">
      <Effects />
      <Transitions />
      <BoundProperties>
        <BoundPropertyInt Name="rotateStepNinety" Value="0" />
      </BoundProperties>
    </ImageClip>
    <ImageClip extentID="240" gapBefore="0" mediaItemID="196" duration="0.070000000000000007">
      <Effects />
      <Transitions />
      <BoundProperties>
        <BoundPropertyInt Name="rotateStepNinety" Value="0" />
      </BoundProperties>
    </ImageClip>
    <ImageClip extentID="404" gapBefore="0" mediaItemID="150" duration="0.070000000000000007">
      <Effects />
      <Transitions />
      <BoundProperties>
        <BoundPropertyInt Name="rotateStepNinety" Value="0" />
      </BoundProperties>
    </ImageClip>
    <ImageClip extentID="241" gapBefore="0" mediaItemID="197" duration="0.070000000000000007">
      <Effects />
      <Transitions />
      <BoundProperties>
        <BoundPropertyInt Name="rotateStepNinety" Value="0" />
      </BoundProperties>
    </ImageClip>
    <ImageClip extentID="405" gapBefore="0" mediaItemID="151" duration="0.070000000000000007">
      <Effects />
      <Transitions />
      <BoundProperties>
        <BoundPropertyInt Name="rotateStepNinety" Value="0" />
      </BoundProperties>
    </ImageClip>
    <ImageClip extentID="242" gapBefore="0" mediaItemID="198" duration="0.070000000000000007">
      <Effects />
      <Transitions />
      <BoundProperties>
        <BoundPropertyInt Name="rotateStepNinety" Value="0" />
      </BoundProperties>
    </ImageClip>
    <ImageClip extentID="406" gapBefore="0" mediaItemID="152" duration="0.070000000000000007">
      <Effects />
      <Transitions />
      <BoundProperties>
        <BoundPropertyInt Name="rotateStepNinety" Value="0" />
      </BoundProperties>
    </ImageClip>
    <ImageClip extentID="243" gapBefore="0" mediaItemID="199" duration="0.070000000000000007">
      <Effects />
      <Transitions />
      <BoundProperties>
        <BoundPropertyInt Name="rotateStepNinety" Value="0" />
      </BoundProperties>
    </ImageClip>
    <ImageClip extentID="407" gapBefore="0" mediaItemID="153" duration="0.070000000000000007">
      <Effects />
      <Transitions />
      <BoundProperties>
        <BoundPropertyInt Name="rotateStepNinety" Value="0" />
      </BoundProperties>
    </ImageClip>
    <ImageClip extentID="244" gapBefore="0" mediaItemID="200" duration="0.070000000000000007">
      <Effects />
      <Transitions />
      <BoundProperties>
        <BoundPropertyInt Name="rotateStepNinety" Value="0" />
      </BoundProperties>
    </ImageClip>
    <ImageClip extentID="408" gapBefore="0" mediaItemID="154" duration="0.070000000000000007">
      <Effects />
      <Transitions />
      <BoundProperties>
        <BoundPropertyInt Name="rotateStepNinety" Value="0" />
      </BoundProperties>
    </ImageClip>
    <ImageClip extentID="245" gapBefore="0" mediaItemID="201" duration="0.070000000000000007">
      <Effects />
      <Transitions />
      <BoundProperties>
        <BoundPropertyInt Name="rotateStepNinety" Value="0" />
      </BoundProperties>
    </ImageClip>
    <ImageClip extentID="409" gapBefore="0" mediaItemID="155" duration="0.070000000000000007">
      <Effects />
      <Transitions />
      <BoundProperties>
        <BoundPropertyInt Name="rotateStepNinety" Value="0" />
      </BoundProperties>
    </ImageClip>
    <ImageClip extentID="246" gapBefore="0" mediaItemID="202" duration="0.070000000000000007">
      <Effects />
      <Transitions />
      <BoundProperties>
        <BoundPropertyInt Name="rotateStepNinety" Value="0" />
      </BoundProperties>
    </ImageClip>
    <ImageClip extentID="410" gapBefore="0" mediaItemID="156" duration="0.070000000000000007">
      <Effects />
      <Transitions />
      <BoundProperties>
        <BoundPropertyInt Name="rotateStepNinety" Value="0" />
      </BoundProperties>
    </ImageClip>
    <ImageClip extentID="247" gapBefore="0" mediaItemID="203" duration="0.070000000000000007">
      <Effects />
      <Transitions />
      <BoundProperties>
        <BoundPropertyInt Name="rotateStepNinety" Value="0" />
      </BoundProperties>
    </ImageClip>
    <ImageClip extentID="411" gapBefore="0" mediaItemID="157" duration="0.070000000000000007">
      <Effects />
      <Transitions />
      <BoundProperties>
        <BoundPropertyInt Name="rotateStepNinety" Value="0" />
      </BoundProperties>
    </ImageClip>
    <ImageClip extentID="248" gapBefore="0" mediaItemID="204" duration="0.070000000000000007">
      <Effects />
      <Transitions />
      <BoundProperties>
        <BoundPropertyInt Name="rotateStepNinety" Value="0" />
      </BoundProperties>
    </ImageClip>
    <ImageClip extentID="412" gapBefore="0" mediaItemID="158" duration="0.070000000000000007">
      <Effects />
      <Transitions />
      <BoundProperties>
        <BoundPropertyInt Name="rotateStepNinety" Value="0" />
      </BoundProperties>
    </ImageClip>
    <ImageClip extentID="249" gapBefore="0" mediaItemID="205" duration="0.070000000000000007">
      <Effects />
      <Transitions />
      <BoundProperties>
        <BoundPropertyInt Name="rotateStepNinety" Value="0" />
      </BoundProperties>
    </ImageClip>
    <ImageClip extentID="413" gapBefore="0" mediaItemID="159" duration="0.070000000000000007">
      <Effects />
      <Transitions />
      <BoundProperties>
        <BoundPropertyInt Name="rotateStepNinety" Value="0" />
      </BoundProperties>
    </ImageClip>
    <ImageClip extentID="250" gapBefore="0" mediaItemID="206" duration="0.070000000000000007">
      <Effects />
      <Transitions />
      <BoundProperties>
        <BoundPropertyInt Name="rotateStepNinety" Value="0" />
      </BoundProperties>
    </ImageClip>
    <ImageClip extentID="414" gapBefore="0" mediaItemID="160" duration="0.070000000000000007">
      <Effects />
      <Transitions />
      <BoundProperties>
        <BoundPropertyInt Name="rotateStepNinety" Value="0" />
      </BoundProperties>
    </ImageClip>
    <ImageClip extentID="251" gapBefore="0" mediaItemID="207" duration="0.070000000000000007">
      <Effects />
      <Transitions />
      <BoundProperties>
        <BoundPropertyInt Name="rotateStepNinety" Value="0" />
      </BoundProperties>
    </ImageClip>
    <ImageClip extentID="415" gapBefore="0" mediaItemID="161" duration="0.070000000000000007">
      <Effects />
      <Transitions />
      <BoundProperties>
        <BoundPropertyInt Name="rotateStepNinety" Value="0" />
      </BoundProperties>
    </ImageClip>
    <ImageClip extentID="252" gapBefore="0" mediaItemID="208" duration="0.070000000000000007">
      <Effects />
      <Transitions />
      <BoundProperties>
        <BoundPropertyInt Name="rotateStepNinety" Value="0" />
      </BoundProperties>
    </ImageClip>
    <ImageClip extentID="416" gapBefore="0" mediaItemID="162" duration="0.070000000000000007">
      <Effects />
      <Transitions />
      <BoundProperties>
        <BoundPropertyInt Name="rotateStepNinety" Value="0" />
      </BoundProperties>
    </ImageClip>
    <ImageClip extentID="253" gapBefore="0" mediaItemID="209" duration="0.070000000000000007">
      <Effects />
      <Transitions />
      <BoundProperties>
        <BoundPropertyInt Name="rotateStepNinety" Value="0" />
      </BoundProperties>
    </ImageClip>
    <ImageClip extentID="417" gapBefore="0" mediaItemID="163" duration="0.070000000000000007">
      <Effects />
      <Transitions />
      <BoundProperties>
        <BoundPropertyInt Name="rotateStepNinety" Value="0" />
      </BoundProperties>
    </ImageClip>
    <ImageClip extentID="254" gapBefore="0" mediaItemID="210" duration="0.070000000000000007">
      <Effects />
      <Transitions />
      <BoundProperties>
        <BoundPropertyInt Name="rotateStepNinety" Value="0" />
      </BoundProperties>
    </ImageClip>
    <ImageClip extentID="418" gapBefore="0" mediaItemID="164" duration="0.070000000000000007">
      <Effects />
      <Transitions />
      <BoundProperties>
        <BoundPropertyInt Name="rotateStepNinety" Value="0" />
      </BoundProperties>
    </ImageClip>
    <ImageClip extentID="255" gapBefore="0" mediaItemID="1" duration="0.070000000000000007">
      <Effects />
      <Transitions />
      <BoundProperties>
        <BoundPropertyInt Name="rotateStepNinety" Value="0" />
      </BoundProperties>
    </ImageClip>
    <ImageClip extentID="419" gapBefore="0" mediaItemID="165" duration="0.070000000000000007">
      <Effects />
      <Transitions />
      <BoundProperties>
        <BoundPropertyInt Name="rotateStepNinety" Value="0" />
      </BoundProperties>
    </ImageClip>
    <ImageClip extentID="256" gapBefore="0" mediaItemID="2" duration="0.070000000000000007">
      <Effects />
      <Transitions />
      <BoundProperties>
        <BoundPropertyInt Name="rotateStepNinety" Value="0" />
      </BoundProperties>
    </ImageClip>
    <ImageClip extentID="420" gapBefore="0" mediaItemID="166" duration="0.070000000000000007">
      <Effects />
      <Transitions />
      <BoundProperties>
        <BoundPropertyInt Name="rotateStepNinety" Value="0" />
      </BoundProperties>
    </ImageClip>
    <ImageClip extentID="257" gapBefore="0" mediaItemID="3" duration="0.070000000000000007">
      <Effects />
      <Transitions />
      <BoundProperties>
        <BoundPropertyInt Name="rotateStepNinety" Value="0" />
      </BoundProperties>
    </ImageClip>
    <ImageClip extentID="421" gapBefore="0" mediaItemID="167" duration="0.070000000000000007">
      <Effects />
      <Transitions />
      <BoundProperties>
        <BoundPropertyInt Name="rotateStepNinety" Value="0" />
      </BoundProperties>
    </ImageClip>
    <ImageClip extentID="258" gapBefore="0" mediaItemID="4" duration="0.070000000000000007">
      <Effects />
      <Transitions />
      <BoundProperties>
        <BoundPropertyInt Name="rotateStepNinety" Value="0" />
      </BoundProperties>
    </ImageClip>
    <ImageClip extentID="422" gapBefore="0" mediaItemID="168" duration="0.070000000000000007">
      <Effects />
      <Transitions />
      <BoundProperties>
        <BoundPropertyInt Name="rotateStepNinety" Value="0" />
      </BoundProperties>
    </ImageClip>
    <ImageClip extentID="259" gapBefore="0" mediaItemID="5" duration="0.070000000000000007">
      <Effects />
      <Transitions />
      <BoundProperties>
        <BoundPropertyInt Name="rotateStepNinety" Value="0" />
      </BoundProperties>
    </ImageClip>
    <ImageClip extentID="423" gapBefore="0" mediaItemID="169" duration="1">
      <Effects />
      <Transitions>
        <ShaderEffect effectTemplateID="BowTieVerticalTransitionTemplate" duration="1.5">
          <BoundProperties />
        </ShaderEffect>
      </Transitions>
      <BoundProperties>
        <BoundPropertyInt Name="rotateStepNinety" Value="0" />
      </BoundProperties>
    </ImageClip>
    <ImageClip extentID="260" gapBefore="0" mediaItemID="6" duration="0.070000000000000007">
      <Effects />
      <Transitions />
      <BoundProperties>
        <BoundPropertyInt Name="rotateStepNinety" Value="0" />
      </BoundProperties>
    </ImageClip>
    <ImageClip extentID="424" gapBefore="0" mediaItemID="170" duration="1">
      <Effects>
        <ShaderEffect effectTemplateID="BlackAndWhiteOrangeEffectTemplate">
          <BoundProperties />
        </ShaderEffect>
      </Effects>
      <Transitions>
        <ShapeEffect effectTemplateID="PixelateTransitionTemplate" duration="1.5">
          <BoundProperties />
        </ShapeEffect>
      </Transitions>
      <BoundProperties>
        <BoundPropertyInt Name="rotateStepNinety" Value="0" />
      </BoundProperties>
    </ImageClip>
    <ImageClip extentID="261" gapBefore="0" mediaItemID="7" duration="0.070000000000000007">
      <Effects />
      <Transitions />
      <BoundProperties>
        <BoundPropertyInt Name="rotateStepNinety" Value="0" />
      </BoundProperties>
    </ImageClip>
    <ImageClip extentID="262" gapBefore="0" mediaItemID="8" duration="0.070000000000000007">
      <Effects />
      <Transitions />
      <BoundProperties>
        <BoundPropertyInt Name="rotateStepNinety" Value="0" />
      </BoundProperties>
    </ImageClip>
    <ImageClip extentID="263" gapBefore="0" mediaItemID="9" duration="0.070000000000000007">
      <Effects />
      <Transitions />
      <BoundProperties>
        <BoundPropertyInt Name="rotateStepNinety" Value="0" />
      </BoundProperties>
    </ImageClip>
    <ImageClip extentID="264" gapBefore="0" mediaItemID="10" duration="0.070000000000000007">
      <Effects />
      <Transitions />
      <BoundProperties>
        <BoundPropertyInt Name="rotateStepNinety" Value="0" />
      </BoundProperties>
    </ImageClip>
    <ImageClip extentID="265" gapBefore="0" mediaItemID="11" duration="0.070000000000000007">
      <Effects />
      <Transitions />
      <BoundProperties>
        <BoundPropertyInt Name="rotateStepNinety" Value="0" />
      </BoundProperties>
    </ImageClip>
    <ImageClip extentID="266" gapBefore="0" mediaItemID="12" duration="0.070000000000000007">
      <Effects />
      <Transitions />
      <BoundProperties>
        <BoundPropertyInt Name="rotateStepNinety" Value="0" />
      </BoundProperties>
    </ImageClip>
    <ImageClip extentID="267" gapBefore="0" mediaItemID="13" duration="0.070000000000000007">
      <Effects />
      <Transitions />
      <BoundProperties>
        <BoundPropertyInt Name="rotateStepNinety" Value="0" />
      </BoundProperties>
    </ImageClip>
    <ImageClip extentID="268" gapBefore="0" mediaItemID="14" duration="0.070000000000000007">
      <Effects />
      <Transitions />
      <BoundProperties>
        <BoundPropertyInt Name="rotateStepNinety" Value="0" />
      </BoundProperties>
    </ImageClip>
    <ImageClip extentID="269" gapBefore="0" mediaItemID="15" duration="0.070000000000000007">
      <Effects />
      <Transitions />
      <BoundProperties>
        <BoundPropertyInt Name="rotateStepNinety" Value="0" />
      </BoundProperties>
    </ImageClip>
    <ImageClip extentID="270" gapBefore="0" mediaItemID="16" duration="0.070000000000000007">
      <Effects />
      <Transitions />
      <BoundProperties>
        <BoundPropertyInt Name="rotateStepNinety" Value="0" />
      </BoundProperties>
    </ImageClip>
    <ImageClip extentID="271" gapBefore="0" mediaItemID="17" duration="0.070000000000000007">
      <Effects />
      <Transitions />
      <BoundProperties>
        <BoundPropertyInt Name="rotateStepNinety" Value="0" />
      </BoundProperties>
    </ImageClip>
    <ImageClip extentID="272" gapBefore="0" mediaItemID="18" duration="0.070000000000000007">
      <Effects />
      <Transitions />
      <BoundProperties>
        <BoundPropertyInt Name="rotateStepNinety" Value="0" />
      </BoundProperties>
    </ImageClip>
    <ImageClip extentID="273" gapBefore="0" mediaItemID="19" duration="0.070000000000000007">
      <Effects />
      <Transitions />
      <BoundProperties>
        <BoundPropertyInt Name="rotateStepNinety" Value="0" />
      </BoundProperties>
    </ImageClip>
    <ImageClip extentID="274" gapBefore="0" mediaItemID="20" duration="0.070000000000000007">
      <Effects />
      <Transitions />
      <BoundProperties>
        <BoundPropertyInt Name="rotateStepNinety" Value="0" />
      </BoundProperties>
    </ImageClip>
    <ImageClip extentID="275" gapBefore="0" mediaItemID="21" duration="0.070000000000000007">
      <Effects />
      <Transitions />
      <BoundProperties>
        <BoundPropertyInt Name="rotateStepNinety" Value="0" />
      </BoundProperties>
    </ImageClip>
    <ImageClip extentID="276" gapBefore="0" mediaItemID="22" duration="0.070000000000000007">
      <Effects />
      <Transitions />
      <BoundProperties>
        <BoundPropertyInt Name="rotateStepNinety" Value="0" />
      </BoundProperties>
    </ImageClip>
    <ImageClip extentID="277" gapBefore="0" mediaItemID="23" duration="0.070000000000000007">
      <Effects />
      <Transitions />
      <BoundProperties>
        <BoundPropertyInt Name="rotateStepNinety" Value="0" />
      </BoundProperties>
    </ImageClip>
    <ImageClip extentID="278" gapBefore="0" mediaItemID="24" duration="0.070000000000000007">
      <Effects />
      <Transitions />
      <BoundProperties>
        <BoundPropertyInt Name="rotateStepNinety" Value="0" />
      </BoundProperties>
    </ImageClip>
    <ImageClip extentID="279" gapBefore="0" mediaItemID="25" duration="0.070000000000000007">
      <Effects />
      <Transitions />
      <BoundProperties>
        <BoundPropertyInt Name="rotateStepNinety" Value="0" />
      </BoundProperties>
    </ImageClip>
    <ImageClip extentID="280" gapBefore="0" mediaItemID="26" duration="0.070000000000000007">
      <Effects />
      <Transitions />
      <BoundProperties>
        <BoundPropertyInt Name="rotateStepNinety" Value="0" />
      </BoundProperties>
    </ImageClip>
    <ImageClip extentID="281" gapBefore="0" mediaItemID="27" duration="0.070000000000000007">
      <Effects />
      <Transitions />
      <BoundProperties>
        <BoundPropertyInt Name="rotateStepNinety" Value="0" />
      </BoundProperties>
    </ImageClip>
    <ImageClip extentID="282" gapBefore="0" mediaItemID="28" duration="0.070000000000000007">
      <Effects />
      <Transitions />
      <BoundProperties>
        <BoundPropertyInt Name="rotateStepNinety" Value="0" />
      </BoundProperties>
    </ImageClip>
    <ImageClip extentID="283" gapBefore="0" mediaItemID="29" duration="0.070000000000000007">
      <Effects />
      <Transitions />
      <BoundProperties>
        <BoundPropertyInt Name="rotateStepNinety" Value="0" />
      </BoundProperties>
    </ImageClip>
    <ImageClip extentID="284" gapBefore="0" mediaItemID="30" duration="0.070000000000000007">
      <Effects />
      <Transitions />
      <BoundProperties>
        <BoundPropertyInt Name="rotateStepNinety" Value="0" />
      </BoundProperties>
    </ImageClip>
    <ImageClip extentID="285" gapBefore="0" mediaItemID="31" duration="0.070000000000000007">
      <Effects />
      <Transitions />
      <BoundProperties>
        <BoundPropertyInt Name="rotateStepNinety" Value="0" />
      </BoundProperties>
    </ImageClip>
    <ImageClip extentID="286" gapBefore="0" mediaItemID="32" duration="0.070000000000000007">
      <Effects />
      <Transitions />
      <BoundProperties>
        <BoundPropertyInt Name="rotateStepNinety" Value="0" />
      </BoundProperties>
    </ImageClip>
    <ImageClip extentID="287" gapBefore="0" mediaItemID="33" duration="0.070000000000000007">
      <Effects />
      <Transitions />
      <BoundProperties>
        <BoundPropertyInt Name="rotateStepNinety" Value="0" />
      </BoundProperties>
    </ImageClip>
    <ImageClip extentID="288" gapBefore="0" mediaItemID="34" duration="0.070000000000000007">
      <Effects />
      <Transitions />
      <BoundProperties>
        <BoundPropertyInt Name="rotateStepNinety" Value="0" />
      </BoundProperties>
    </ImageClip>
    <ImageClip extentID="289" gapBefore="0" mediaItemID="35" duration="0.070000000000000007">
      <Effects />
      <Transitions />
      <BoundProperties>
        <BoundPropertyInt Name="rotateStepNinety" Value="0" />
      </BoundProperties>
    </ImageClip>
    <ImageClip extentID="290" gapBefore="0" mediaItemID="36" duration="0.070000000000000007">
      <Effects />
      <Transitions />
      <BoundProperties>
        <BoundPropertyInt Name="rotateStepNinety" Value="0" />
      </BoundProperties>
    </ImageClip>
    <ImageClip extentID="291" gapBefore="0" mediaItemID="37" duration="0.070000000000000007">
      <Effects />
      <Transitions />
      <BoundProperties>
        <BoundPropertyInt Name="rotateStepNinety" Value="0" />
      </BoundProperties>
    </ImageClip>
    <ImageClip extentID="292" gapBefore="0" mediaItemID="38" duration="0.070000000000000007">
      <Effects />
      <Transitions />
      <BoundProperties>
        <BoundPropertyInt Name="rotateStepNinety" Value="0" />
      </BoundProperties>
    </ImageClip>
    <ImageClip extentID="293" gapBefore="0" mediaItemID="39" duration="0.070000000000000007">
      <Effects />
      <Transitions />
      <BoundProperties>
        <BoundPropertyInt Name="rotateStepNinety" Value="0" />
      </BoundProperties>
    </ImageClip>
    <ImageClip extentID="294" gapBefore="0" mediaItemID="40" duration="0.070000000000000007">
      <Effects />
      <Transitions />
      <BoundProperties>
        <BoundPropertyInt Name="rotateStepNinety" Value="0" />
      </BoundProperties>
    </ImageClip>
    <ImageClip extentID="295" gapBefore="0" mediaItemID="41" duration="0.070000000000000007">
      <Effects />
      <Transitions />
      <BoundProperties>
        <BoundPropertyInt Name="rotateStepNinety" Value="0" />
      </BoundProperties>
    </ImageClip>
    <ImageClip extentID="296" gapBefore="0" mediaItemID="42" duration="0.070000000000000007">
      <Effects />
      <Transitions />
      <BoundProperties>
        <BoundPropertyInt Name="rotateStepNinety" Value="0" />
      </BoundProperties>
    </ImageClip>
    <ImageClip extentID="297" gapBefore="0" mediaItemID="43" duration="0.070000000000000007">
      <Effects />
      <Transitions />
      <BoundProperties>
        <BoundPropertyInt Name="rotateStepNinety" Value="0" />
      </BoundProperties>
    </ImageClip>
    <ImageClip extentID="298" gapBefore="0" mediaItemID="44" duration="0.070000000000000007">
      <Effects />
      <Transitions />
      <BoundProperties>
        <BoundPropertyInt Name="rotateStepNinety" Value="0" />
      </BoundProperties>
    </ImageClip>
    <ImageClip extentID="299" gapBefore="0" mediaItemID="45" duration="0.070000000000000007">
      <Effects />
      <Transitions />
      <BoundProperties>
        <BoundPropertyInt Name="rotateStepNinety" Value="0" />
      </BoundProperties>
    </ImageClip>
    <ImageClip extentID="300" gapBefore="0" mediaItemID="46" duration="0.070000000000000007">
      <Effects />
      <Transitions />
      <BoundProperties>
        <BoundPropertyInt Name="rotateStepNinety" Value="0" />
      </BoundProperties>
    </ImageClip>
    <ImageClip extentID="301" gapBefore="0" mediaItemID="47" duration="0.070000000000000007">
      <Effects />
      <Transitions />
      <BoundProperties>
        <BoundPropertyInt Name="rotateStepNinety" Value="0" />
      </BoundProperties>
    </ImageClip>
    <ImageClip extentID="302" gapBefore="0" mediaItemID="48" duration="0.070000000000000007">
      <Effects />
      <Transitions />
      <BoundProperties>
        <BoundPropertyInt Name="rotateStepNinety" Value="0" />
      </BoundProperties>
    </ImageClip>
    <ImageClip extentID="303" gapBefore="0" mediaItemID="49" duration="0.070000000000000007">
      <Effects />
      <Transitions />
      <BoundProperties>
        <BoundPropertyInt Name="rotateStepNinety" Value="0" />
      </BoundProperties>
    </ImageClip>
    <ImageClip extentID="304" gapBefore="0" mediaItemID="50" duration="0.070000000000000007">
      <Effects />
      <Transitions />
      <BoundProperties>
        <BoundPropertyInt Name="rotateStepNinety" Value="0" />
      </BoundProperties>
    </ImageClip>
    <ImageClip extentID="305" gapBefore="0" mediaItemID="51" duration="0.070000000000000007">
      <Effects />
      <Transitions />
      <BoundProperties>
        <BoundPropertyInt Name="rotateStepNinety" Value="0" />
      </BoundProperties>
    </ImageClip>
    <ImageClip extentID="306" gapBefore="0" mediaItemID="52" duration="0.070000000000000007">
      <Effects />
      <Transitions />
      <BoundProperties>
        <BoundPropertyInt Name="rotateStepNinety" Value="0" />
      </BoundProperties>
    </ImageClip>
    <ImageClip extentID="307" gapBefore="0" mediaItemID="53" duration="0.070000000000000007">
      <Effects />
      <Transitions />
      <BoundProperties>
        <BoundPropertyInt Name="rotateStepNinety" Value="0" />
      </BoundProperties>
    </ImageClip>
    <ImageClip extentID="308" gapBefore="0" mediaItemID="54" duration="0.070000000000000007">
      <Effects />
      <Transitions />
      <BoundProperties>
        <BoundPropertyInt Name="rotateStepNinety" Value="0" />
      </BoundProperties>
    </ImageClip>
    <ImageClip extentID="309" gapBefore="0" mediaItemID="55" duration="0.070000000000000007">
      <Effects />
      <Transitions />
      <BoundProperties>
        <BoundPropertyInt Name="rotateStepNinety" Value="0" />
      </BoundProperties>
    </ImageClip>
    <ImageClip extentID="310" gapBefore="0" mediaItemID="56" duration="0.070000000000000007">
      <Effects />
      <Transitions />
      <BoundProperties>
        <BoundPropertyInt Name="rotateStepNinety" Value="0" />
      </BoundProperties>
    </ImageClip>
    <ImageClip extentID="311" gapBefore="0" mediaItemID="57" duration="0.070000000000000007">
      <Effects />
      <Transitions />
      <BoundProperties>
        <BoundPropertyInt Name="rotateStepNinety" Value="0" />
      </BoundProperties>
    </ImageClip>
    <ImageClip extentID="312" gapBefore="0" mediaItemID="58" duration="0.070000000000000007">
      <Effects />
      <Transitions />
      <BoundProperties>
        <BoundPropertyInt Name="rotateStepNinety" Value="0" />
      </BoundProperties>
    </ImageClip>
    <ImageClip extentID="313" gapBefore="0" mediaItemID="59" duration="0.070000000000000007">
      <Effects />
      <Transitions />
      <BoundProperties>
        <BoundPropertyInt Name="rotateStepNinety" Value="0" />
      </BoundProperties>
    </ImageClip>
    <ImageClip extentID="314" gapBefore="0" mediaItemID="60" duration="0.070000000000000007">
      <Effects />
      <Transitions />
      <BoundProperties>
        <BoundPropertyInt Name="rotateStepNinety" Value="0" />
      </BoundProperties>
    </ImageClip>
    <ImageClip extentID="315" gapBefore="0" mediaItemID="61" duration="0.070000000000000007">
      <Effects />
      <Transitions />
      <BoundProperties>
        <BoundPropertyInt Name="rotateStepNinety" Value="0" />
      </BoundProperties>
    </ImageClip>
    <ImageClip extentID="316" gapBefore="0" mediaItemID="62" duration="0.070000000000000007">
      <Effects />
      <Transitions />
      <BoundProperties>
        <BoundPropertyInt Name="rotateStepNinety" Value="0" />
      </BoundProperties>
    </ImageClip>
    <ImageClip extentID="317" gapBefore="0" mediaItemID="63" duration="0.070000000000000007">
      <Effects />
      <Transitions />
      <BoundProperties>
        <BoundPropertyInt Name="rotateStepNinety" Value="0" />
      </BoundProperties>
    </ImageClip>
    <ImageClip extentID="318" gapBefore="0" mediaItemID="64" duration="0.070000000000000007">
      <Effects />
      <Transitions />
      <BoundProperties>
        <BoundPropertyInt Name="rotateStepNinety" Value="0" />
      </BoundProperties>
    </ImageClip>
    <ImageClip extentID="319" gapBefore="0" mediaItemID="65" duration="0.070000000000000007">
      <Effects />
      <Transitions />
      <BoundProperties>
        <BoundPropertyInt Name="rotateStepNinety" Value="0" />
      </BoundProperties>
    </ImageClip>
    <ImageClip extentID="320" gapBefore="0" mediaItemID="66" duration="0.070000000000000007">
      <Effects />
      <Transitions />
      <BoundProperties>
        <BoundPropertyInt Name="rotateStepNinety" Value="0" />
      </BoundProperties>
    </ImageClip>
    <ImageClip extentID="321" gapBefore="0" mediaItemID="67" duration="0.070000000000000007">
      <Effects />
      <Transitions />
      <BoundProperties>
        <BoundPropertyInt Name="rotateStepNinety" Value="0" />
      </BoundProperties>
    </ImageClip>
    <ImageClip extentID="322" gapBefore="0" mediaItemID="68" duration="0.070000000000000007">
      <Effects />
      <Transitions />
      <BoundProperties>
        <BoundPropertyInt Name="rotateStepNinety" Value="0" />
      </BoundProperties>
    </ImageClip>
    <ImageClip extentID="323" gapBefore="0" mediaItemID="69" duration="0.070000000000000007">
      <Effects />
      <Transitions />
      <BoundProperties>
        <BoundPropertyInt Name="rotateStepNinety" Value="0" />
      </BoundProperties>
    </ImageClip>
    <ImageClip extentID="324" gapBefore="0" mediaItemID="70" duration="0.070000000000000007">
      <Effects />
      <Transitions />
      <BoundProperties>
        <BoundPropertyInt Name="rotateStepNinety" Value="0" />
      </BoundProperties>
    </ImageClip>
    <ImageClip extentID="325" gapBefore="0" mediaItemID="71" duration="0.070000000000000007">
      <Effects />
      <Transitions />
      <BoundProperties>
        <BoundPropertyInt Name="rotateStepNinety" Value="0" />
      </BoundProperties>
    </ImageClip>
    <ExtentSelector extentID="1" gapBefore="0" primaryTrack="true">
      <Effects />
      <Transitions />
      <BoundProperties />
      <ExtentRefs>
        <ExtentRef id="215" />
        <ExtentRef id="216" />
        <ExtentRef id="217" />
        <ExtentRef id="218" />
        <ExtentRef id="219" />
        <ExtentRef id="220" />
        <ExtentRef id="221" />
        <ExtentRef id="222" />
        <ExtentRef id="223" />
        <ExtentRef id="224" />
        <ExtentRef id="225" />
        <ExtentRef id="226" />
        <ExtentRef id="227" />
        <ExtentRef id="228" />
        <ExtentRef id="229" />
        <ExtentRef id="230" />
        <ExtentRef id="231" />
        <ExtentRef id="232" />
        <ExtentRef id="233" />
        <ExtentRef id="234" />
        <ExtentRef id="235" />
        <ExtentRef id="236" />
        <ExtentRef id="237" />
        <ExtentRef id="238" />
        <ExtentRef id="239" />
        <ExtentRef id="240" />
        <ExtentRef id="241" />
        <ExtentRef id="242" />
        <ExtentRef id="243" />
        <ExtentRef id="244" />
        <ExtentRef id="245" />
        <ExtentRef id="246" />
        <ExtentRef id="247" />
        <ExtentRef id="248" />
        <ExtentRef id="249" />
        <ExtentRef id="250" />
        <ExtentRef id="251" />
        <ExtentRef id="252" />
        <ExtentRef id="253" />
        <ExtentRef id="254" />
        <ExtentRef id="255" />
        <ExtentRef id="256" />
        <ExtentRef id="257" />
        <ExtentRef id="258" />
        <ExtentRef id="259" />
        <ExtentRef id="260" />
        <ExtentRef id="261" />
        <ExtentRef id="262" />
        <ExtentRef id="263" />
        <ExtentRef id="264" />
        <ExtentRef id="265" />
        <ExtentRef id="266" />
        <ExtentRef id="267" />
        <ExtentRef id="268" />
        <ExtentRef id="269" />
        <ExtentRef id="270" />
        <ExtentRef id="271" />
        <ExtentRef id="272" />
        <ExtentRef id="273" />
        <ExtentRef id="274" />
        <ExtentRef id="275" />
        <ExtentRef id="276" />
        <ExtentRef id="277" />
        <ExtentRef id="278" />
        <ExtentRef id="279" />
        <ExtentRef id="280" />
        <ExtentRef id="281" />
        <ExtentRef id="282" />
        <ExtentRef id="283" />
        <ExtentRef id="284" />
        <ExtentRef id="285" />
        <ExtentRef id="286" />
        <ExtentRef id="287" />
        <ExtentRef id="288" />
        <ExtentRef id="289" />
        <ExtentRef id="290" />
        <ExtentRef id="291" />
        <ExtentRef id="292" />
        <ExtentRef id="293" />
        <ExtentRef id="294" />
        <ExtentRef id="295" />
        <ExtentRef id="296" />
        <ExtentRef id="297" />
        <ExtentRef id="298" />
        <ExtentRef id="299" />
        <ExtentRef id="300" />
        <ExtentRef id="301" />
        <ExtentRef id="302" />
        <ExtentRef id="303" />
        <ExtentRef id="304" />
        <ExtentRef id="305" />
        <ExtentRef id="306" />
        <ExtentRef id="307" />
        <ExtentRef id="308" />
        <ExtentRef id="309" />
        <ExtentRef id="310" />
        <ExtentRef id="311" />
        <ExtentRef id="312" />
        <ExtentRef id="313" />
        <ExtentRef id="314" />
        <ExtentRef id="315" />
        <ExtentRef id="316" />
        <ExtentRef id="317" />
        <ExtentRef id="318" />
        <ExtentRef id="319" />
        <ExtentRef id="320" />
        <ExtentRef id="321" />
        <ExtentRef id="322" />
        <ExtentRef id="323" />
        <ExtentRef id="324" />
        <ExtentRef id="325" />
        <ExtentRef id="326" />
        <ExtentRef id="327" />
        <ExtentRef id="328" />
        <ExtentRef id="329" />
        <ExtentRef id="330" />
        <ExtentRef id="331" />
        <ExtentRef id="332" />
        <ExtentRef id="333" />
        <ExtentRef id="334" />
        <ExtentRef id="335" />
        <ExtentRef id="336" />
        <ExtentRef id="337" />
        <ExtentRef id="338" />
        <ExtentRef id="339" />
        <ExtentRef id="340" />
        <ExtentRef id="341" />
        <ExtentRef id="342" />
        <ExtentRef id="343" />
        <ExtentRef id="344" />
        <ExtentRef id="345" />
        <ExtentRef id="346" />
        <ExtentRef id="347" />
        <ExtentRef id="348" />
        <ExtentRef id="349" />
        <ExtentRef id="350" />
        <ExtentRef id="351" />
        <ExtentRef id="352" />
        <ExtentRef id="353" />
        <ExtentRef id="354" />
        <ExtentRef id="355" />
        <ExtentRef id="356" />
        <ExtentRef id="357" />
        <ExtentRef id="358" />
        <ExtentRef id="359" />
        <ExtentRef id="360" />
        <ExtentRef id="361" />
        <ExtentRef id="362" />
        <ExtentRef id="363" />
        <ExtentRef id="364" />
        <ExtentRef id="365" />
        <ExtentRef id="366" />
        <ExtentRef id="367" />
        <ExtentRef id="368" />
        <ExtentRef id="369" />
        <ExtentRef id="370" />
        <ExtentRef id="371" />
        <ExtentRef id="372" />
        <ExtentRef id="373" />
        <ExtentRef id="374" />
        <ExtentRef id="375" />
        <ExtentRef id="376" />
        <ExtentRef id="377" />
        <ExtentRef id="378" />
        <ExtentRef id="379" />
        <ExtentRef id="380" />
        <ExtentRef id="381" />
        <ExtentRef id="382" />
        <ExtentRef id="383" />
        <ExtentRef id="384" />
        <ExtentRef id="385" />
        <ExtentRef id="386" />
        <ExtentRef id="387" />
        <ExtentRef id="388" />
        <ExtentRef id="389" />
        <ExtentRef id="390" />
        <ExtentRef id="391" />
        <ExtentRef id="392" />
        <ExtentRef id="393" />
        <ExtentRef id="394" />
        <ExtentRef id="395" />
        <ExtentRef id="396" />
        <ExtentRef id="397" />
        <ExtentRef id="398" />
        <ExtentRef id="399" />
        <ExtentRef id="400" />
        <ExtentRef id="401" />
        <ExtentRef id="402" />
        <ExtentRef id="403" />
        <ExtentRef id="404" />
        <ExtentRef id="405" />
        <ExtentRef id="406" />
        <ExtentRef id="407" />
        <ExtentRef id="408" />
        <ExtentRef id="409" />
        <ExtentRef id="410" />
        <ExtentRef id="411" />
        <ExtentRef id="412" />
        <ExtentRef id="413" />
        <ExtentRef id="414" />
        <ExtentRef id="415" />
        <ExtentRef id="416" />
        <ExtentRef id="417" />
        <ExtentRef id="418" />
        <ExtentRef id="419" />
        <ExtentRef id="420" />
        <ExtentRef id="421" />
        <ExtentRef id="422" />
        <ExtentRef id="423" />
        <ExtentRef id="424" />
      </ExtentRefs>
    </ExtentSelector>
    <ExtentSelector extentID="2" gapBefore="0" primaryTrack="false">
      <Effects />
      <Transitions />
      <BoundProperties />
      <ExtentRefs />
    </ExtentSelector>
    <ExtentSelector extentID="3" gapBefore="0" primaryTrack="false">
      <Effects />
      <Transitions />
      <BoundProperties />
      <ExtentRefs />
    </ExtentSelector>
    <ExtentSelector extentID="4" gapBefore="0" primaryTrack="false">
      <Effects />
      <Transitions />
      <BoundProperties />
      <ExtentRefs />
    </ExtentSelector>
  </Extents>
  <BoundPlaceholders>
    <BoundPlaceholder placeholderID="SingleExtentView" extentID="0" />
    <BoundPlaceholder placeholderID="Main" extentID="1" />
    <BoundPlaceholder placeholderID="SoundTrack" extentID="2" />
    <BoundPlaceholder placeholderID="Narration" extentID="3" />
    <BoundPlaceholder placeholderID="Text" extentID="4" />
  </BoundPlaceholders>
  <BoundProperties>
    <BoundPropertyFloatSet Name="AspectRatio">
      <BoundPropertyFloatElement Value="1.7777776718139648" />
    </BoundPropertyFloatSet>
    <BoundPropertyFloat Name="DuckedNarrationAndSoundTrackMix" Value="0.5" />
    <BoundPropertyFloat Name="DuckedVideoAndNarrationMix" Value="0.5" />
    <BoundPropertyFloat Name="DuckedVideoAndSoundTrackMix" Value="0.5" />
    <BoundPropertyFloat Name="SoundTrackMix" Value="0.5" />
  </BoundProperties>
  <ThemeOperationLog themeID="0">
    <MonolithicThemeOperations />
  </ThemeOperationLog>
  <AudioDuckingProperties emphasisPlaceholderID="Narration" />
</Project>